<svg width="100" height="75" viewBox="0 0 100 75" fill="none" xmlns="http://www.w3.org/2000/svg"><path d="M57.1985 17.3006C57.6051 12.5959 59.7591 8.23096 63.267 5.01434C66.7966 1.78037 71.3815 0 76.1828 0C86.6892 0 95.2357 8.50206 95.2357 18.9478C95.2357 21.7862 94.6215 24.5083 93.4147 27.0413C93.1812 27.5316 92.6924 27.8154 92.182 27.8154C91.9874 27.8154 91.7884 27.7724 91.5981 27.6864C90.919 27.3682 90.6292 26.5597 90.9493 25.8802C91.9831 23.7084 92.5064 21.3776 92.5064 18.9435C92.5064 9.98989 85.1836 2.7049 76.183 2.7049C67.7788 2.7049 60.6292 9.21585 59.9113 17.5288C59.8464 18.2728 59.1846 18.8276 58.4363 18.7631C57.6924 18.7029 57.1344 18.0449 57.1993 17.3008L57.1985 17.3006ZM99.6523 43.865L98.013 66.1367C97.9611 66.8462 97.3685 67.3924 96.6548 67.3924H91.7281C91.0707 71.6929 87.3249 75 82.8221 75C78.315 75 74.5692 71.6929 73.9075 67.3924H40.5372C39.8798 71.6929 36.134 75 31.6312 75C27.1242 75 23.3827 71.6929 22.7252 67.3924H13.9101C13.5295 67.3924 13.1705 67.2376 12.911 66.9581C12.6515 66.6829 12.5217 66.313 12.552 65.9346L13.5382 52.5428L1.36253 52.5471C0.609919 52.5471 0 51.9407 0 51.1924C0 50.4441 0.609882 49.8377 1.36253 49.8377H25.187C25.9396 49.8377 26.5495 50.4441 26.5495 51.1924C26.5495 51.9407 25.9396 52.5471 25.187 52.5471H16.2681L15.377 64.6829H22.7259C23.3834 60.3825 27.1292 57.0797 31.6319 57.0797C36.139 57.0797 39.8805 60.3868 40.5379 64.6829H66.8842L69.3411 31.2718C69.3411 31.2245 69.3454 31.1772 69.3497 31.1341L69.9034 23.6126L18.3918 23.6083L17.8425 31.1213H39.0325C39.7851 31.1213 40.395 31.7277 40.395 32.476C40.395 33.2243 39.7852 33.8307 39.0325 33.8307L9.79336 33.835C9.04075 33.835 8.43083 33.2286 8.43083 32.4803C8.43083 31.732 9.04071 31.1256 9.79336 31.1256H15.1092L15.7667 22.1548C15.8186 21.4452 16.4112 20.899 17.1249 20.899H71.365C71.7456 20.899 72.1046 21.0539 72.3641 21.3334C72.6237 21.6086 72.7534 21.9785 72.7231 22.3569L72.1652 29.9472H88.7793C89.2075 29.9472 89.6054 30.145 89.865 30.4848L99.3767 42.9472C99.58 43.2052 99.6794 43.5321 99.6535 43.8632L99.6523 43.865ZM37.9158 66.0385C37.9158 62.5938 35.0957 59.7899 31.6311 59.7899C28.1664 59.7899 25.3463 62.5938 25.3463 66.0385C25.3463 69.4875 28.1664 72.2914 31.6311 72.2914C35.0957 72.2914 37.9158 69.4875 37.9158 66.0385ZM89.1062 66.0385C89.1062 62.5938 86.2861 59.7899 82.8215 59.7899C79.3525 59.7899 76.5324 62.5938 76.5324 66.0385C76.5324 69.4875 79.3525 72.2914 82.8215 72.2914C86.2861 72.2914 89.1062 69.4875 89.1062 66.0385ZM96.8963 44.1751L88.1027 32.6585H71.9694L69.6164 64.6844H73.9115C74.569 60.3839 78.3148 57.0811 82.8261 57.0811C87.3288 57.0811 91.0746 60.3882 91.7321 64.6844H95.3913L96.8963 44.1751ZM87.8605 34.5035L95.231 44.1714C95.5424 44.58 95.5943 45.1304 95.3651 45.5906C95.1358 46.0507 94.66 46.3432 94.1453 46.3432H73.7507C73.37 46.3432 73.011 46.1884 72.7515 45.9088C72.492 45.6336 72.3622 45.2638 72.3925 44.8853L73.1062 35.2174C73.1581 34.5078 73.7507 33.9616 74.4644 33.9616H86.7739C87.1978 33.9659 87.6 34.168 87.8596 34.5035L87.8605 34.5035ZM91.3987 43.6334L86.0958 36.6795H75.7324L75.2177 43.6334H91.3987ZM3.55854 40.0727H27.3876C28.1402 40.0727 28.7501 39.4663 28.7501 38.718C28.7501 37.9697 28.1403 37.3633 27.3876 37.3633H3.55854C2.80593 37.3633 2.19601 37.9697 2.19601 38.718C2.19601 39.4663 2.8059 40.0727 3.55854 40.0727ZM5.12869 44.958C5.12869 45.7063 5.73857 46.3127 6.49122 46.3127H37.2483C38.0009 46.3127 38.6108 45.7063 38.6108 44.958C38.6108 44.2097 38.0009 43.6033 37.2483 43.6033L6.49122 43.599C5.73861 43.599 5.12869 44.2098 5.12869 44.958ZM35.7658 66.0389C35.7658 68.3095 33.9103 70.1544 31.635 70.1544C29.3556 70.1544 27.5042 68.3095 27.5042 66.0389C27.5042 63.7725 29.3598 61.9319 31.635 61.9319C33.9102 61.9276 35.7658 63.7724 35.7658 66.0389ZM33.0365 66.0389C33.0365 65.2691 32.405 64.6412 31.6308 64.6412C30.8565 64.6412 30.2251 65.2691 30.2251 66.0389C30.2251 66.8129 30.8566 67.4408 31.6308 67.4408C32.405 67.4408 33.0365 66.8129 33.0365 66.0389ZM86.9518 66.0389C86.9518 68.3095 85.0962 70.1544 82.821 70.1544C80.5372 70.1544 78.6817 68.3095 78.6817 66.0389C78.6817 63.7725 80.5372 61.9319 82.821 61.9319C85.1005 61.9276 86.9518 63.7724 86.9518 66.0389ZM84.2268 66.0389C84.2268 65.2691 83.5953 64.6412 82.8211 64.6412C82.0425 64.6412 81.4067 65.2691 81.4067 66.0389C81.4067 66.8129 82.0382 67.4408 82.8211 67.4408C83.5954 67.4408 84.2268 66.8129 84.2268 66.0389ZM41.4666 49.3012C41.0428 49.0603 40.7876 48.6131 40.7876 48.1271L40.7832 36.0261C40.7832 35.5402 41.0428 35.0929 41.4623 34.8521L51.9992 28.8013C52.4231 28.5605 52.9421 28.5605 53.3617 28.8013L63.9069 34.8521C64.3308 35.0929 64.586 35.5402 64.586 36.0261V48.1271C64.586 48.6131 64.3265 49.0603 63.9069 49.3012L53.3617 55.3519C53.3574 55.3562 53.3531 55.3562 53.3531 55.3562C53.3055 55.382 53.2536 55.4078 53.2017 55.4293C53.1974 55.4293 53.1974 55.4336 53.193 55.4336C53.1455 55.4508 53.0979 55.468 53.046 55.4852C53.033 55.4895 53.02 55.4938 53.007 55.4938C52.9681 55.5024 52.9249 55.511 52.8859 55.5196C52.8729 55.5239 52.86 55.5239 52.8427 55.5282C52.7908 55.5368 52.7345 55.5368 52.6826 55.5368C52.6264 55.5368 52.5745 55.5325 52.5183 55.5282C52.5053 55.5282 52.4923 55.5239 52.4793 55.5196C52.4361 55.511 52.3972 55.5067 52.3539 55.4938C52.3409 55.4895 52.3279 55.4852 52.315 55.4852C52.2631 55.4723 52.2155 55.4551 52.1679 55.4336C52.1636 55.4336 52.1636 55.4336 52.1593 55.4293C52.1073 55.4078 52.0554 55.382 52.0079 55.3562C52.0035 55.3519 51.9992 55.3519 51.9949 55.3519L41.4666 49.3012ZM61.8649 38.369L54.0446 42.8544V51.8252L61.8649 47.3398V38.369ZM57.9591 34.5631L50.1432 39.0485L52.6864 40.5064L60.5024 36.021L57.9591 34.5631ZM44.8708 36.0253L47.4185 37.4875L55.2301 33.0021L52.6825 31.5399L44.8708 36.0253ZM43.5127 47.3437L51.3243 51.8292V42.8584L48.781 41.3962V44.514C48.781 45.2623 48.1711 45.8687 47.4185 45.8687C46.6658 45.8687 46.0559 45.2623 46.0559 44.514V39.8307L43.5127 38.3685V47.3437ZM28.5208 51.1926C28.5208 51.9409 29.1306 52.5473 29.8833 52.5473H39.4208C40.1734 52.5473 40.7833 51.941 40.7833 51.1926C40.7833 50.4443 40.1735 49.8379 39.4208 49.8379H29.8833C29.1307 49.8379 28.5208 50.4443 28.5208 51.1926ZM37.2537 40.0715C38.0064 40.0715 38.6163 39.4651 38.6163 38.7168C38.6163 37.9685 38.0064 37.3621 37.2537 37.3621H32.2233C31.4707 37.3621 30.8607 37.9685 30.8607 38.7168C30.8607 39.4651 31.4706 40.0715 32.2233 40.0715H37.2537ZM76.1864 6.38508C75.4338 6.38508 74.8238 6.99145 74.8238 7.73976V18.9472C74.8238 19.4503 75.105 19.9148 75.5548 20.147L81.8007 23.3982C82.004 23.5014 82.2203 23.553 82.4322 23.553C82.921 23.553 83.3968 23.2907 83.639 22.8262C83.9894 22.1639 83.7298 21.3425 83.0637 20.9985L77.5488 18.1258V7.74046C77.5488 6.99218 76.9389 6.38577 76.1863 6.38577L76.1864 6.38508Z" fill="#757575"></path></svg>