<svg width="71" height="75" viewBox="0 0 71 75" fill="none" xmlns="http://www.w3.org/2000/svg"><path d="M69.8582 12.2939C69.8165 12.0022 69.6776 11.7244 69.4692 11.516L58.3561 0.402852C58.0921 0.138915 57.7448 0 57.3698 0H12.9171C12.5421 0 12.1948 0.152806 11.9309 0.402852L0.817703 11.516C0.609331 11.7244 0.470417 12.0022 0.428742 12.2939C0.359285 12.7663 -6.21138 59.4279 34.6432 74.9166H34.6849C34.8377 74.9722 34.9766 75 35.1433 75C35.31 75 35.4489 74.9722 35.6017 74.9166H35.6434C76.5117 59.4138 69.9416 12.7525 69.8579 12.2939H69.8582ZM35.1436 72.1243C-0.988263 58.0387 2.58203 17.8224 3.12361 13.1548L13.5003 2.77811H56.8002L67.177 13.1548C67.7326 17.8224 71.3166 58.0239 35.157 72.1243H35.1436Z" fill="#757575"></path><path d="M36.5298 31.3808V21.8235C36.5298 21.0595 35.9047 20.4343 35.1406 20.4343C34.3766 20.4343 33.7515 21.0594 33.7515 21.8235V31.9646C33.7515 32.1452 33.7932 32.3258 33.8626 32.5064C33.9321 32.6731 34.0293 32.8259 34.1682 32.9509L39.3219 38.1046C39.5998 38.3824 39.9471 38.5075 40.3082 38.5075C40.6693 38.5075 41.0167 38.3685 41.2944 38.1046C41.8362 37.5628 41.8362 36.6877 41.2944 36.1459L36.5298 31.3808Z" fill="#757575"></path><path d="M48.8928 18.1982L48.8373 18.1704C45.3227 14.6698 40.4742 12.5027 35.1399 12.5027C29.8056 12.5027 24.9573 14.6698 21.4426 18.1704C21.4287 18.1704 21.4148 18.1843 21.387 18.1982C21.3592 18.2121 21.3731 18.226 21.3592 18.2538C17.8586 21.7683 15.6915 26.6168 15.6915 31.9511C15.6915 37.2854 17.8586 42.1337 21.3592 45.6485C21.3592 45.6623 21.3731 45.6762 21.387 45.704C21.4009 45.7318 21.4148 45.7179 21.4426 45.7318C24.9571 49.2324 29.8056 51.3995 35.1399 51.3995C40.4742 51.3995 45.3225 49.2324 48.8373 45.7318C48.8512 45.7318 48.865 45.7179 48.8928 45.704C48.9206 45.6901 48.9067 45.6762 48.9206 45.6485C52.4213 42.1339 54.5883 37.2854 54.5883 31.9511C54.5883 26.6168 52.4213 21.7685 48.9206 18.2538C48.9206 18.2399 48.9067 18.226 48.8928 18.1982ZM50.2681 33.3402H51.7405C51.4488 36.8965 50.0319 40.1332 47.8649 42.7035L46.823 41.6616C46.2813 41.1199 45.4061 41.1199 44.8643 41.6616C44.3225 42.2034 44.3225 43.0786 44.8643 43.6204L45.9061 44.6622C43.3362 46.8432 40.0995 48.2462 36.5429 48.5379V47.0654C36.5429 46.3014 35.9178 45.6762 35.1538 45.6762C34.3897 45.6762 33.7646 46.3013 33.7646 47.0654V48.5379C30.2084 48.2462 26.9717 46.8293 24.4014 44.6622L25.4432 43.6204C25.985 43.0786 25.985 42.2034 25.4432 41.6616C24.9015 41.1198 24.0263 41.1199 23.4845 41.6616L22.4427 42.7035C20.2617 40.1335 18.8587 36.8968 18.567 33.3402H20.0395C20.8035 33.3402 21.4286 32.7151 21.4286 31.9511C21.4286 31.1871 20.8035 30.562 20.0395 30.562H18.567C18.8587 27.0057 20.2756 23.769 22.4427 21.1987L23.4845 22.2406C23.7623 22.5184 24.1096 22.6434 24.4708 22.6434C24.8319 22.6434 25.1792 22.5045 25.457 22.2406C25.9988 21.6988 25.9988 20.8236 25.457 20.2818L24.4152 19.24C26.9851 17.059 30.2218 15.656 33.7784 15.3643V16.8368C33.7784 17.6008 34.4035 18.226 35.1675 18.226C35.9316 18.226 36.5567 17.6009 36.5567 16.8368V15.3643C40.1129 15.656 43.3497 17.0729 45.9199 19.24L44.8781 20.2818C44.3363 20.8236 44.3363 21.6988 44.8781 22.2406C45.1559 22.5184 45.5032 22.6434 45.8643 22.6434C46.2255 22.6434 46.5728 22.5045 46.8506 22.2406L47.8924 21.1987C50.0734 23.7687 51.4764 27.0054 51.7681 30.562H50.2956C49.5316 30.562 48.9065 31.1871 48.9065 31.9511C48.9065 32.7151 49.5316 33.3402 50.2956 33.3402H50.2681Z" fill="#757575"></path></svg>