<svg width="48" height="75" viewBox="0 0 48 75" fill="none" xmlns="http://www.w3.org/2000/svg"><path d="M31.2622 56.6465C31.2622 56.8997 31.4647 57.0545 31.6703 57.0545C31.8728 57.0545 32.0783 56.852 32.0783 56.6465C32.0277 53.2927 31.3665 49.683 30.1453 45.5128C30.044 45.2596 29.8415 45.1583 29.5853 45.2089C29.3321 45.2596 29.2815 45.5128 29.2815 45.7183C30.5504 49.8345 31.2116 53.3934 31.2622 56.6461L31.2622 56.6465Z" fill="#757575"></path><path d="M5.69518 42.5662C5.44201 42.4649 5.23649 42.5662 5.13522 42.8193C4.88205 43.3793 4.67653 43.9363 4.42337 44.4962C4.06893 45.36 3.71151 46.1732 3.35708 47.0875C3.30645 47.3407 3.40771 47.5462 3.66088 47.6475C3.71152 47.6475 3.76216 47.6981 3.81279 47.6981C4.01532 47.6981 4.11659 47.5969 4.16723 47.3943C4.52167 46.4799 4.87908 45.6668 5.23351 44.803C5.48669 44.2431 5.69221 43.6861 5.94537 43.1261C5.99898 42.9206 5.89772 42.6674 5.69518 42.5662Z" fill="#757575"></path><path d="M13.0137 40.7352C13.2669 40.7352 13.4218 40.5833 13.4724 40.3808L13.6243 39.3145C14.5894 32.7049 14.9468 29.7057 14.5894 23.4539C14.5894 23.2007 14.3362 23.0458 14.1813 23.0995C13.9282 23.0995 13.7733 23.3526 13.8269 23.5075C14.1813 29.7088 13.7763 32.4548 12.8113 39.2162L12.6594 40.2795C12.6087 40.5327 12.8113 40.6846 13.0138 40.7352L13.0137 40.7352Z" fill="#757575"></path><path d="M17.2343 32.2452C16.9811 32.2959 16.8799 32.549 16.9305 32.7545C17.3386 34.3302 18.1517 35.602 19.0154 36.9751C20.7936 39.8225 22.6253 42.7206 20.7936 48.9222C20.7429 49.1753 20.8442 49.3808 21.0974 49.4315H21.2493C21.4518 49.4315 21.5531 49.2796 21.6573 49.1277C23.641 42.5181 21.5561 39.3169 19.7779 36.4689C18.9648 35.1465 18.2023 33.9283 17.7942 32.4539C17.69 32.3467 17.4874 32.1948 17.2342 32.2454L17.2343 32.2452Z" fill="#757575"></path><path d="M17.1326 31.3824C17.4364 31.3824 17.5407 31.1293 17.5407 30.9237C17.49 30.3131 17.5407 29.7025 17.6926 28.94C17.7432 28.6869 17.5913 28.4813 17.3888 28.4307C17.1862 28.3801 16.9301 28.532 16.8794 28.7345C16.7275 29.5477 16.6769 30.2595 16.7275 30.9207C16.6739 31.1798 16.8765 31.3824 17.1326 31.3824Z" fill="#757575"></path><path d="M19.4201 16.234L18.6576 16.0821C18.4044 16.0314 18.1989 16.1834 18.1482 16.3859C18.0976 16.5884 18.2495 16.8446 18.452 16.8952L19.2145 17.0471H19.3158C19.5184 17.0471 19.6703 16.8952 19.7239 16.7433C19.7745 16.5378 19.6732 16.2846 19.4201 16.234Z" fill="#757575"></path><path d="M47.0727 6.16961L20.2836 0.0189881C20.0304 -0.0316468 19.8756 0.0189881 19.673 0.17089L12.3518 6.32151C12.1999 6.47341 12.0986 6.62531 12.0986 6.83083V8.5584L8.13418 7.64397C7.88101 7.59334 7.72612 7.64397 7.52359 7.79588L0.253175 13.9971C0.101273 14.149 0 14.3009 0 14.5065V67.6786C0 67.9824 0.253175 68.2892 0.509323 68.3904L27.3994 75H27.602C27.8045 75 27.9564 74.9494 28.0607 74.7975L35.2777 67.9858C35.4296 67.8339 35.5309 67.682 35.5309 67.4765V66.4102L39.5459 67.3753H39.7485C39.951 67.3753 40.1029 67.3246 40.2072 67.1727L47.4242 60.3611C47.5761 60.2092 47.6774 60.0573 47.6774 59.8518L47.6833 6.88173C47.6327 6.52431 47.4272 6.27113 47.0727 6.16988L47.0727 6.16961ZM42.9028 6.62532C42.8015 7.79588 41.7322 8.81153 40.5646 9.87788C39.6502 10.7417 38.7359 11.5548 38.1759 12.6241L36.0403 12.1148C36.6509 11.4535 37.5653 10.7923 38.3784 10.1817C39.9034 9.11541 41.4791 7.99549 41.8365 6.41985L42.9028 6.62532ZM32.9401 13.3359C33.092 13.0321 33.2439 12.6747 33.3482 12.3203L34.62 12.6241C34.5187 12.9785 34.3668 13.2853 34.2656 13.5892L32.9401 13.3359ZM17.7918 9.88087L15.7069 9.37154V7.99848L17.6906 8.45717V8.55844C17.7412 9.01714 17.7412 9.42222 17.7918 9.88087ZM18.7092 10.0834C18.6586 9.62471 18.608 9.16898 18.5573 8.71034L21.2529 9.37155V9.42219C21.2023 9.83024 21.2023 10.286 21.2529 10.694L18.7092 10.0834ZM22.1137 10.8459V9.6247L32.4849 12.219C32.3836 12.5228 32.2317 12.8296 32.0768 13.1334L22.1137 10.8459ZM33.6013 14.9622L30.5513 17.8096C25.6726 16.639 23.0274 14.9115 22.3157 12.4215L33.6013 14.9622ZM35.0757 13.8452C35.1769 13.5414 35.3288 13.184 35.4301 12.8802L37.7682 13.4401C37.107 17.5058 36.3445 20.5053 35.5314 22.843L35.5344 14.5057C35.5344 14.1989 35.3289 13.9458 35.0757 13.8445L35.0757 13.8452ZM19.522 2.20509C20.5883 3.27138 21.1989 4.3913 21.5563 5.45765C21.607 5.66019 21.8095 5.76146 21.9644 5.76146H22.0657C22.3188 5.71082 22.4201 5.45765 22.3695 5.25213C22.0657 4.03093 21.3538 2.86336 20.1833 1.6928L20.3352 1.49026L39.1447 5.76145C39.1447 6.22014 38.8915 6.72652 38.3316 7.2358C38.129 7.3877 38.129 7.64386 38.2809 7.8464C38.3822 7.94767 38.4835 7.9983 38.5847 7.9983C38.686 7.9983 38.7873 7.94766 38.8885 7.89703C39.2966 7.48897 39.8536 6.88138 39.9548 6.0176L40.9199 6.27077C40.6161 7.49198 39.2936 8.45698 37.8193 9.57391C36.8036 10.3364 35.7343 11.0989 35.0224 11.912L33.6017 11.6082C34.2629 10.7445 35.3798 10.0832 36.4491 9.47268C36.7529 9.32078 37.0091 9.16887 37.2623 9.01398C37.4648 8.86208 37.5661 8.65954 37.4142 8.45403C37.2623 8.25149 37.0597 8.15022 36.8542 8.30212C36.5504 8.45402 36.3449 8.60593 36.0411 8.76082C34.7692 9.52331 33.4498 10.2858 32.6873 11.4027L22.1642 8.70719C22.3161 8.24849 22.4174 7.74212 22.4174 7.33412C22.4174 7.08095 22.2655 6.92606 22.0629 6.87543C21.8097 6.87543 21.6549 7.02733 21.6042 7.22987C21.5536 7.63792 21.503 8.09365 21.3511 8.50171L14.0806 6.72357L19.522 2.20509ZM13.5233 7.54257L14.8457 7.84638V9.21944L13.5233 8.91564V7.54257ZM6.45814 10.5926C6.30623 12.472 6.91683 14.2025 8.28692 15.8794L2.03502 14.3038L6.45814 10.5926ZM18.81 71.3865L8.48956 68.8458C10.3183 64.3215 12.6058 61.9834 14.6908 62.4421C17.1838 62.9485 19.0127 67.0171 18.8101 71.3862L18.81 71.3865ZM19.6737 71.4907C19.9269 66.6626 17.7943 62.2391 14.9468 61.5783C13.4218 61.2744 10.4731 61.7301 7.67642 68.5926L6.40457 68.2888C9.25199 60.0532 12.6058 55.5792 15.5545 55.9872C18.8577 56.3416 21.4014 62.5967 22.316 72.2023L19.6737 71.4907ZM27.1977 73.3701L26.0807 73.0663C26.3339 60.6637 23.132 51.8181 17.896 50.4951C14.5928 49.6314 11.1854 52.1214 8.54331 57.3068C8.44204 57.5093 8.49268 57.7655 8.74585 57.8668C8.94839 57.968 9.20454 57.8668 9.30581 57.6642C11.7452 52.8867 14.7952 50.5488 17.6933 51.3111C23.0814 52.6842 25.3684 63.0014 25.2172 72.8637L23.1829 72.405C22.2178 61.9829 19.421 55.5799 15.6087 55.0703C12.1507 54.6622 8.59122 59.2372 5.4904 68.0327L3.15227 67.4728C4.98105 56.3899 7.62596 53.289 9.76184 50.748C11.3375 48.9192 12.7105 47.29 13.1663 43.2241C13.2169 42.9709 13.0144 42.816 12.8118 42.7654C12.6093 42.7148 12.4038 42.9173 12.3531 43.1198C11.9451 46.983 10.7269 48.4067 9.15122 50.185C6.96501 52.7763 4.16817 55.9812 2.33958 67.2637L1.37451 67.0105V15.167H1.47578L9.50869 17.1507C9.55932 17.2014 9.60996 17.252 9.66059 17.3026C10.8818 27.7749 8.08496 35.8053 5.94939 40.9401C5.84812 41.1932 5.94939 41.3988 6.20257 41.5C6.2532 41.5 6.30384 41.5506 6.4051 41.5506C6.60764 41.5506 6.70891 41.4494 6.75954 41.2975C8.94575 36.1119 11.689 28.0313 10.5214 17.4574L27.2461 21.5736V73.3732L27.1977 73.3701ZM27.5521 20.606L9.81199 16.2336C7.62578 14.1486 6.91392 12.1173 7.47385 9.77902L8.23635 9.1178L10.4226 9.62713C10.7264 12.829 12.8113 15.0659 16.6745 16.3886H16.8264C17.0289 16.3886 17.1302 16.2873 17.2344 16.0848C17.3357 15.8316 17.1838 15.6261 16.9306 15.5754C13.4726 14.4049 11.5931 12.5255 11.2893 9.77926L21.4045 12.0667C21.9645 15.0155 24.7076 17.0498 29.8422 18.3693L27.5521 20.606ZM34.1617 39.5165C32.3836 35.4003 31.6716 29.2495 31.2636 23.5041C31.2636 23.2509 31.0105 23.096 30.8049 23.1497C30.5518 23.1497 30.3969 23.4028 30.4505 23.6083C30.9092 30.1671 31.7729 37.2831 34.2123 41.3987V48.6157C32.1274 43.9901 30.7543 38.2445 29.9412 31.1799C29.8905 30.9268 29.688 30.8255 29.4825 30.8255C29.2293 30.8761 29.128 31.0787 29.128 31.2842C30.0931 39.3171 31.77 45.6198 34.2629 50.5493V67.1724L30.7542 70.5262C31.8712 66.6124 32.4312 63.2558 32.4312 60.31C32.4312 60.0568 32.2286 59.9019 32.0231 59.9019C31.7699 59.9019 31.615 60.1045 31.615 60.31C31.615 63.5625 30.9032 67.2735 29.4795 71.6973L28.2583 72.8678L28.2642 21.3192L30.4504 19.2848V20.7085C30.4504 20.9617 30.653 21.1166 30.8585 21.1166C31.061 21.1166 31.2666 20.9141 31.2666 20.7085V18.5223L34.2153 15.7761V39.5152L34.1617 39.5165ZM39.2966 65.6441L35.5854 64.7297V25.1815C36.7023 22.6409 37.7716 19.0309 38.6354 13.6424L39.2966 13.7943V65.6441ZM39.6004 12.9816L38.9392 12.8297C39.4485 11.9659 40.2616 11.2541 41.0748 10.5422C42.296 9.47595 43.5142 8.35603 43.666 6.88168L45.751 7.34037L39.6004 12.9816ZM46.2602 59.494L45.0896 60.6109C45.2922 53.6474 45.0896 46.7843 42.9034 42.7697C42.8022 42.5672 42.549 42.4659 42.3435 42.5672C42.1409 42.6685 42.0397 42.9216 42.1409 43.1272C44.3271 47.1422 44.3271 54.6148 44.1753 61.3769L40.2109 65.1387V13.6937L46.2095 8.1507V59.4909L46.2602 59.494Z" fill="#757575"></path><path d="M43.4623 28.993C43.4623 28.7398 43.2598 28.585 43.0542 28.585C42.8517 28.585 42.6462 28.7875 42.6462 28.993C42.6968 32.3468 43.358 35.9565 44.5792 40.1267C44.6299 40.3293 44.8324 40.4306 44.9873 40.4306H45.1392C45.3924 40.3799 45.443 40.1267 45.443 39.9212C44.1235 35.805 43.5129 32.1946 43.4623 28.9934L43.4623 28.993Z" fill="#757575"></path><path d="M42.9025 25.7913C43.1557 25.7913 43.3106 25.5887 43.3106 25.3832C43.3106 22.0801 44.0224 18.2678 45.4968 13.743C45.4968 13.4899 45.3955 13.2844 45.193 13.1831C44.9398 13.0818 44.7343 13.2337 44.6836 13.4869C43.1586 18.1125 42.4974 21.976 42.4974 25.3831C42.4468 25.5857 42.6493 25.7912 42.9025 25.7912L42.9025 25.7913Z" fill="#757575"></path></svg>