<svg width="509" height="18" viewBox="0 0 509 18" fill="none" xmlns="http://www.w3.org/2000/svg"><path d="M6.99593 8.8436C6.99593 7.5211 6.01207 6.59251 4.80482 6.59251C4.2235 6.60629 3.67058 6.84957 3.26425 7.27034C2.85793 7.69112 2.63045 8.25599 2.63045 8.84422C2.63045 9.43244 2.85793 9.99732 3.26425 10.4181C3.67058 10.8389 4.2235 11.0821 4.80482 11.0959C6.01329 11.0996 6.99593 10.1661 6.99593 8.8436ZM7.01302 12.779V11.7553C6.69883 12.1249 6.30772 12.4197 5.86771 12.6184C5.42771 12.8172 4.94969 12.915 4.46792 12.9049C2.26094 12.9049 0.586182 11.1762 0.586182 8.8436C0.586182 6.51102 2.32564 4.76868 4.51797 4.76868C4.99033 4.76306 5.45824 4.86142 5.88928 5.05695C6.32033 5.25247 6.70418 5.54048 7.01424 5.90101V4.91315H8.99539V12.779H7.01302Z" fill="#9C9C9C"></path><path d="M18.6179 11.0317C17.9246 11.0317 17.733 10.7847 17.733 10.1192V6.62462H19.0061V4.90821H17.733V2.98806H15.7018V4.90821H13.0871V4.43157C13.0871 3.7697 13.3446 3.5178 14.0539 3.5178H14.5018V1.98908H13.5253C11.8493 1.98908 11.0608 2.52376 11.0608 4.16114V4.90204H9.93287V6.61844H11.0608V12.7728H13.0907V6.62338H15.7054V10.4822C15.7054 12.0875 16.3341 12.7802 17.9771 12.7802H19.0183V11.0317H18.6179Z" fill="#9C9C9C"></path><path d="M25.9005 8.13604C25.7564 7.11237 24.9007 6.49866 23.9035 6.49866C22.9062 6.49866 22.0822 7.09632 21.8735 8.13604H25.9005ZM21.8564 9.3647C22.0016 10.5291 22.8561 11.191 23.9315 11.191C24.786 11.191 25.4464 10.7959 25.8321 10.1673H27.9073C27.419 11.8356 25.8932 12.9062 23.879 12.9062C21.4597 12.9049 19.7507 11.2367 19.7507 8.85965C19.7507 6.48261 21.5561 4.7662 23.9401 4.7662C26.324 4.7662 28.0794 6.49496 28.0794 8.85965C28.08 9.02876 28.064 9.19752 28.0318 9.36346L21.8564 9.3647Z" fill="#9C9C9C"></path><path d="M40.9904 8.8436C40.9839 8.40547 40.8496 7.97906 40.6042 7.61796C40.3589 7.25685 40.0135 6.97716 39.6115 6.81403C39.2094 6.6509 38.7687 6.61161 38.3447 6.7011C37.9207 6.79059 37.5323 7.00487 37.2283 7.31701C36.9243 7.62914 36.7183 8.0252 36.6361 8.45543C36.554 8.88565 36.5994 9.33084 36.7666 9.73504C36.9338 10.1392 37.2154 10.4844 37.576 10.7272C37.9366 10.97 38.3601 11.0996 38.7932 11.0996C39.0848 11.1007 39.3737 11.0428 39.6429 10.9293C39.9121 10.8159 40.1562 10.6492 40.3609 10.4391C40.5655 10.2289 40.7266 9.97957 40.8348 9.70559C40.9429 9.43161 40.9958 9.13855 40.9904 8.8436ZM34.61 4.90821H36.5911V5.93188C36.9022 5.55754 37.2924 5.25859 37.7328 5.05707C38.1733 4.85554 38.6529 4.75656 39.1362 4.76744C41.3115 4.76744 43.018 6.51472 43.018 8.82754C43.018 11.1404 41.2785 12.9025 39.0886 12.9025C38.073 12.9025 37.2356 12.5086 36.6558 11.8479V16.0142H34.6051L34.61 4.90821Z" fill="#9C9C9C"></path><path d="M50.154 8.8436C50.154 7.5211 49.1775 6.59251 47.9641 6.59251C47.3828 6.60628 46.8299 6.84956 46.4235 7.27034C46.0172 7.69111 45.7897 8.25599 45.7897 8.84421C45.7897 9.43243 46.0172 9.99732 46.4235 10.4181C46.8299 10.8389 47.3828 11.0821 47.9641 11.0959C49.1689 11.0996 50.154 10.1661 50.154 8.8436ZM50.1723 12.779V11.7553C49.8581 12.1249 49.467 12.4197 49.027 12.6184C48.587 12.8172 48.109 12.915 47.6272 12.9049C45.4202 12.9049 43.7455 11.1762 43.7455 8.8436C43.7455 6.51101 45.4837 4.76867 47.6748 4.76867C48.1474 4.76304 48.6155 4.8614 49.0467 5.05692C49.4779 5.25243 49.862 5.54045 50.1723 5.90101V4.91315H52.1535V12.779H50.1723Z" fill="#9C9C9C"></path><path d="M31.0346 5.67997C31.223 5.3899 31.4819 5.15365 31.7865 4.99387C32.0911 4.83408 32.4312 4.75611 32.7741 4.76744C33.073 4.76228 33.3694 4.82252 33.6432 4.94402V6.95308C33.6432 6.95308 32.8986 6.50237 32.2138 6.59375C31.529 6.68512 31.0956 7.29883 31.0981 8.11999V12.7802H29.0535V4.90944H31.0346V5.67997Z" fill="#9C9C9C"></path><path d="M61.4062 4.90821L56.4014 15.9932H54.2957L56.2598 11.7072L52.9384 4.90821H55.3296L57.2717 9.45113L59.2663 4.90821H61.4062Z" fill="#9C9C9C"></path><path d="M77.3738 4.72916L72.4142 1.93352C70.9591 1.11236 69.1391 2.1385 69.1391 3.78575V4.07347C69.1395 4.20153 69.1736 4.32717 69.238 4.43743C69.3024 4.5477 69.3946 4.6386 69.5053 4.70076L70.4416 5.22927C70.5032 5.26547 70.5732 5.28483 70.6445 5.28546C70.7158 5.28608 70.786 5.26794 70.8483 5.23283C70.9106 5.19772 70.9628 5.14683 70.9997 5.08516C71.0367 5.02349 71.0572 4.95315 71.0592 4.88105V4.16731C71.0618 4.08434 71.0855 4.00345 71.1282 3.93253C71.1708 3.8616 71.2309 3.80308 71.3026 3.76265C71.3743 3.72223 71.4551 3.70129 71.5372 3.70188C71.6193 3.70246 71.6998 3.72455 71.7709 3.766L76.0652 6.18873C76.1369 6.22753 76.1969 6.28529 76.2387 6.35586C76.2805 6.42643 76.3025 6.50716 76.3025 6.58943C76.3025 6.6717 76.2805 6.75242 76.2387 6.82299C76.1969 6.89356 76.1369 6.95133 76.0652 6.99013L71.7758 9.40791C71.7047 9.44936 71.6241 9.47145 71.5421 9.47204C71.46 9.47262 71.3792 9.45168 71.3075 9.41126C71.2358 9.37084 71.1757 9.31231 71.1331 9.24139C71.0904 9.17047 71.0667 9.08957 71.0641 9.0066V8.62998C71.0641 6.98766 69.2453 5.96028 67.789 6.77774L62.8295 9.57462C62.4997 9.75438 62.2242 10.0211 62.0322 10.3464C61.8402 10.6718 61.7388 11.0436 61.7388 11.4225C61.7388 11.8014 61.8402 12.1733 62.0322 12.4986C62.2242 12.824 62.4997 13.0907 62.8295 13.2705L67.789 16.0661C69.2441 16.8872 71.0641 15.8611 71.0641 14.2139V13.9261C71.0636 13.7981 71.0294 13.6725 70.9651 13.5623C70.9007 13.452 70.8085 13.3611 70.6979 13.2989L69.7617 12.7691C69.7 12.7329 69.6301 12.7135 69.5588 12.7129C69.4875 12.7123 69.4172 12.7304 69.3549 12.7655C69.2926 12.8007 69.2405 12.8516 69.2035 12.9132C69.1665 12.9749 69.146 13.0452 69.144 13.1173V13.8311C69.1417 13.914 69.1181 13.9949 69.0756 14.0659C69.0331 14.1368 68.9731 14.1954 68.9015 14.2359C68.8299 14.2763 68.7491 14.2973 68.6671 14.2967C68.585 14.2961 68.5046 14.2739 68.4336 14.2324L64.1331 11.8158C64.0618 11.7766 64.0022 11.7186 63.9608 11.6479C63.9193 11.5773 63.8974 11.4967 63.8974 11.4145C63.8974 11.3323 63.9193 11.2517 63.9608 11.1811C64.0022 11.1105 64.0618 11.0525 64.1331 11.0132L68.4287 8.59046C68.4997 8.54894 68.5802 8.52679 68.6622 8.52618C68.7442 8.52556 68.825 8.54651 68.8966 8.58696C68.9682 8.62742 69.0282 8.686 69.0707 8.75696C69.1132 8.82792 69.1368 8.90884 69.1391 8.99178V9.37087C69.1391 11.0132 70.9591 12.0406 72.4142 11.2231L77.3738 8.42623C77.7038 8.24656 77.9796 7.97983 78.1718 7.65436C78.364 7.32889 78.4655 6.95683 78.4655 6.5777C78.4655 6.19856 78.364 5.8265 78.1718 5.50103C77.9796 5.17556 77.7038 4.90883 77.3738 4.72916Z" fill="#9C9C9C"></path><path fill-rule="evenodd" clip-rule="evenodd" d="M116.426 0.664062C118.459 0.664062 120.335 1.7758 120.078 4.53709C119.774 7.81395 118.018 9.6386 115.256 9.64555H112.842C112.495 9.64555 112.328 9.93043 112.236 10.5141L111.772 13.4977C111.702 13.948 111.472 14.1703 111.132 14.1703H108.892C108.534 14.1703 108.409 13.9396 108.489 13.4255L110.343 1.47424C110.434 0.886409 110.658 0.668231 111.055 0.668231L116.426 0.664062ZM112.771 7.06352H114.599C115.742 7.02044 116.502 6.22972 116.578 4.78862C116.625 3.90201 116.025 3.26692 115.082 3.27109L113.361 3.27943L112.771 7.06352ZM126.175 13.2531C126.38 13.0669 126.59 12.9683 126.559 13.2003L126.486 13.7562C126.447 14.0453 126.562 14.1995 126.83 14.1995H128.824C129.159 14.1995 129.323 14.0605 129.406 13.5408L130.634 5.78641C130.695 5.3973 130.603 5.20553 130.308 5.20553H128.119C127.92 5.20553 127.825 5.31809 127.774 5.62243L127.692 6.10048C127.65 6.34923 127.536 6.39231 127.431 6.14217C127.059 5.25555 126.11 4.85949 124.781 4.89146C121.705 4.95538 119.632 7.30255 119.411 10.3112C119.24 12.6389 120.898 14.4663 123.084 14.4663C124.669 14.4663 125.379 13.9911 126.178 13.2615L126.175 13.2531ZM124.507 12.0622C123.183 12.0622 122.26 11.0005 122.454 9.69974C122.647 8.399 123.883 7.33729 125.206 7.33729C126.53 7.33729 127.452 8.399 127.26 9.69974C127.068 11.0005 125.831 12.0622 124.507 12.0622ZM134.537 5.17912H132.526C132.112 5.17912 131.94 5.48624 132.073 5.87396L134.582 13.2657L132.109 16.7801C131.903 17.0734 132.062 17.336 132.353 17.336H134.625C134.965 17.336 135.13 17.2485 135.301 17.0025L143.02 5.86701C143.258 5.52376 143.146 5.17217 142.756 5.16383H140.607C140.238 5.16383 140.09 5.30975 139.879 5.61826L136.659 10.3154L135.228 5.61826C135.138 5.32921 134.928 5.17912 134.537 5.17912Z" fill="#9C9C9C"></path><path fill-rule="evenodd" clip-rule="evenodd" d="M151.053 0.664062C153.087 0.664062 154.962 1.7758 154.705 4.53709C154.401 7.81395 152.644 9.6386 149.882 9.64555H147.472C147.125 9.64555 146.958 9.93043 146.867 10.5141L146.403 13.4977C146.332 13.948 146.103 14.1703 145.763 14.1703H143.519C143.161 14.1703 143.035 13.9396 143.115 13.4255L144.971 1.47424C145.062 0.886409 145.285 0.668231 145.681 0.668231L151.053 0.664062ZM147.398 7.06352H149.226C150.369 7.02044 151.129 6.22972 151.205 4.78862C151.252 3.90201 150.652 3.26692 149.708 3.27109L147.988 3.27943L147.398 7.06352ZM160.802 13.2531C161.006 13.0669 161.216 12.9683 161.186 13.2003L161.112 13.7562C161.075 14.0453 161.188 14.1995 161.457 14.1995H163.451C163.785 14.1995 163.949 14.0605 164.032 13.5408L165.261 5.78641C165.322 5.3973 165.229 5.20553 164.935 5.20553H162.746C162.548 5.20553 162.452 5.31809 162.4 5.62243L162.319 6.10048C162.276 6.34923 162.163 6.39231 162.058 6.14217C161.686 5.25555 160.737 4.85949 159.407 4.89146C156.333 4.95538 154.258 7.30255 154.037 10.3112C153.866 12.6389 155.524 14.4663 157.71 14.4663C159.297 14.4663 160.006 13.9911 160.804 13.2615L160.802 13.2531ZM159.134 12.0622C157.81 12.0622 156.887 11.0005 157.08 9.69974C157.274 8.399 158.509 7.33729 159.833 7.33729C161.157 7.33729 162.078 8.399 161.886 9.69974C161.694 11.0005 160.457 12.0622 159.134 12.0622ZM166.03 14.2106C165.99 14.2111 165.951 14.2028 165.914 14.1863C165.878 14.1698 165.845 14.1455 165.819 14.1151C165.793 14.0847 165.773 14.0489 165.762 14.0102C165.751 13.9715 165.748 13.9308 165.754 13.891L167.777 1.01148C167.795 0.92228 167.843 0.841938 167.913 0.783797C167.982 0.725657 168.069 0.693214 168.16 0.691853H170.461C170.501 0.691397 170.54 0.699708 170.577 0.716205C170.614 0.732702 170.646 0.756995 170.672 0.787398C170.699 0.817801 170.718 0.853588 170.729 0.892281C170.74 0.930974 170.743 0.971648 170.737 1.01148L168.714 13.891C168.696 13.9801 168.648 14.0603 168.578 14.1184C168.509 14.1765 168.422 14.209 168.331 14.2106H166.03Z" fill="#9C9C9C"></path><path d="M224.368 6.34691C224.341 8.39639 226.198 9.54038 227.598 10.2202C229.035 10.9179 229.518 11.3628 229.513 11.989C229.502 12.9438 228.367 13.3651 227.303 13.3815C225.448 13.4108 224.368 12.8817 223.513 12.4832L222.845 15.601C223.702 15.998 225.298 16.3408 226.945 16.3551C230.822 16.3551 233.358 14.447 233.372 11.4877C233.387 7.73227 228.164 7.52446 228.199 5.84632C228.212 5.33716 228.7 4.79445 229.765 4.65591C230.294 4.5845 231.752 4.53308 233.405 5.29217L234.054 2.2758C232.949 1.86172 231.78 1.64793 230.6 1.64453C226.949 1.64453 224.386 3.57904 224.365 6.34762M240.288 1.90447C239.952 1.90176 239.623 1.99973 239.343 2.18572C239.063 2.37171 238.845 2.63717 238.718 2.94777L233.181 16.1344H237.054L237.828 14.01H242.562L243.009 16.1344H246.42L243.441 1.90375H240.291M240.833 5.74777L241.95 11.0914H238.886L240.83 5.74777M219.668 1.90375L216.615 16.1344H220.306L223.358 1.90375H219.668ZM214.207 1.90375L210.365 11.5899L208.811 3.35338C208.629 2.43433 207.908 1.90375 207.109 1.90375H200.828L200.74 2.3165C202.029 2.59572 203.494 3.0456 204.382 3.53048C204.925 3.82469 205.08 4.08177 205.259 4.78088L208.202 16.1351H212.103L218.083 1.90447H214.207" fill="#9C9C9C"></path><path d="M299.52 13.5576V13.3208H299.615V13.2726H299.372V13.3208H299.468V13.5576H299.52ZM299.992 13.5576V13.2721H299.917L299.832 13.4685L299.746 13.2721H299.671V13.5576H299.724V13.3422L299.804 13.5279H299.859L299.939 13.3417V13.5576H299.992ZM287.67 14.9785C287.727 15.0285 287.788 15.0768 287.847 15.1257C286.681 15.9023 285.281 16.3551 283.775 16.3551C279.713 16.3551 276.42 13.062 276.42 8.9998C276.42 4.93764 279.713 1.64453 283.775 1.64453C285.281 1.64453 286.681 2.09729 287.847 2.87381C287.788 2.9227 287.727 2.97074 287.669 3.02091C285.937 4.52858 284.943 6.70781 284.943 8.99976C284.943 11.2919 285.937 13.4711 287.67 14.9785ZM292.867 1.64453C291.361 1.64453 289.961 2.09729 288.795 2.87377C288.855 2.92266 288.915 2.97074 288.973 3.02101C290.706 4.52853 291.7 6.70776 291.7 8.99971C291.7 11.2917 290.706 13.4709 288.973 14.9785C288.916 15.0285 288.855 15.0768 288.795 15.1257C289.961 15.9021 291.361 16.3549 292.867 16.3549C296.929 16.355 300.222 13.062 300.222 8.9998C300.222 4.9375 296.929 1.64453 292.867 1.64453ZM288.321 3.21985C288.226 3.29444 288.134 3.37118 288.043 3.45025C286.493 4.79878 285.512 6.78407 285.512 8.99976C285.512 11.2155 286.493 13.2008 288.043 14.5493C288.134 14.6284 288.226 14.7051 288.321 14.7797C288.416 14.7051 288.509 14.6284 288.6 14.5493C290.149 13.2008 291.131 11.2155 291.131 8.99976C291.131 6.78407 290.149 4.79874 288.6 3.45025C288.509 3.37118 288.416 3.2944 288.321 3.21985Z" fill="#9C9C9C"></path><path d="M357.437 1.64453L353.759 11.5741L350.082 1.64453H344.933V15.6195L339.784 1.64453H335.739L330.222 16.3551H333.532L334.636 13.0452H340.888L341.991 16.3551H348.243V5.32217L352.288 16.3551H355.23L359.276 5.68993V16.3551H362.218V1.64453H357.437ZM335.739 9.73533L337.578 4.58664L339.417 9.73533H335.739Z" fill="#9C9C9C"></path><path d="M383.548 8.9998L389.065 1.64453H385.019L381.342 6.05769L378.399 1.64453H366.263V16.3551H378.032L381.709 11.5741L385.387 16.3551H389.065L383.548 8.9998ZM376.193 13.413H369.205V10.4709H375.825V7.52875H369.205V4.9544H376.561L379.503 8.9998L376.193 13.413Z" fill="#9C9C9C"></path><path fill-rule="evenodd" clip-rule="evenodd" d="M423.095 1.95921H419.065V15.9881H423.043C425.19 15.9881 426.707 15.5166 428.069 14.3652C429.639 13.0569 430.633 11.0674 430.633 8.97337C430.633 4.83863 427.545 1.95921 423.095 1.95921ZM426.289 12.5332C425.399 13.2663 424.299 13.6328 422.52 13.6328H421.787V4.36715H422.52C424.299 4.36715 425.346 4.6813 426.289 5.4662C427.231 6.30344 427.807 7.61287 427.807 8.97337C427.806 10.3346 427.231 11.6958 426.289 12.5332ZM431.89 15.9888H434.612V1.95921H431.89V15.9888ZM441.312 7.35105C439.637 6.72312 439.166 6.35683 439.166 5.57121C439.166 4.68147 440.056 4.05355 441.207 4.05355C442.045 4.05355 442.726 4.36769 443.406 5.1526L444.872 3.32079C443.668 2.27371 442.255 1.75044 440.737 1.75044C438.224 1.75044 436.339 3.47795 436.339 5.78088C436.339 7.71788 437.229 8.6603 439.795 9.60237C440.894 9.96866 441.418 10.2303 441.679 10.3875C442.255 10.7541 442.516 11.2772 442.516 11.8533C442.516 13.0051 441.627 13.8425 440.37 13.8425C439.114 13.8425 438.015 13.162 437.386 11.958L435.659 13.6855C436.916 15.5173 438.433 16.3551 440.527 16.3551C443.354 16.3551 445.343 14.4706 445.343 11.7487C445.342 9.49736 444.401 8.50243 441.312 7.35105ZM446.181 8.97337C446.181 13.1086 449.426 16.302 453.613 16.302C454.765 16.302 455.812 16.0924 457.016 15.5166V12.2709C455.916 13.3699 454.974 13.8412 453.718 13.8412C450.996 13.8412 449.007 11.7999 449.007 8.97283C449.007 6.30326 451.049 4.15713 453.613 4.15713C454.922 4.15713 455.916 4.62807 457.016 5.72748V2.53427C455.864 1.90599 454.87 1.64453 453.665 1.64453C449.53 1.64525 446.181 4.94329 446.181 8.97337Z" fill="#9C9C9C"></path><path fill-rule="evenodd" clip-rule="evenodd" d="M465.549 1.64543C461.413 1.64543 458.063 4.89114 458.063 8.86889C458.063 13.1617 461.256 16.3022 465.549 16.3022C469.735 16.3022 473.034 13.109 473.034 8.97355C473.034 4.89096 469.788 1.64543 465.549 1.64543Z" fill="#9C9C9C"></path><path fill-rule="evenodd" clip-rule="evenodd" d="M479.211 11.3819L475.494 1.95921H472.458L478.425 16.3544H479.891L485.964 1.95921H482.98L479.211 11.3819ZM487.22 15.9888H494.967V13.6326H489.942V9.86365H494.758V7.4557H489.942V4.36698H494.967V1.95903H487.22L487.22 15.9888ZM505.803 6.09466C505.803 3.47759 504.023 1.95939 500.83 1.95939H496.799V15.9882H499.521V10.3871H499.887L503.656 15.9882H507.006L502.61 10.0724C504.65 9.65434 505.803 8.24079 505.803 6.09466ZM500.306 8.45064H499.521V4.1582H500.358C502.086 4.1582 502.975 4.89096 502.975 6.25218C502.975 7.66519 502.086 8.45064 500.306 8.45064ZM507.402 3.20345C507.402 3.31114 507.329 3.36811 507.179 3.36811H507.128V3.04665H507.183C507.331 3.04701 507.402 3.09791 507.402 3.20345ZM507.84 4.05355L507.433 3.54242C507.607 3.49777 507.707 3.37062 507.707 3.19595C507.707 2.95414 507.538 2.81734 507.236 2.81734H506.842V4.05355H507.134V3.5751L507.48 4.05355H507.84ZM508.36 3.43312C508.36 2.84288 507.88 2.35622 507.297 2.35622C507.295 2.35604 507.293 2.35604 507.29 2.35604C506.702 2.35604 506.217 2.84038 506.217 3.42883V3.4333C506.217 4.03354 506.7 4.51199 507.297 4.51199C507.88 4.51127 508.36 4.02533 508.36 3.43312ZM508.143 3.43633C508.143 3.92103 507.762 4.3184 507.292 4.3184C506.82 4.3184 506.431 3.92317 506.431 3.43633C506.431 2.94396 506.816 2.55266 507.292 2.55266C507.762 2.55266 508.143 2.95003 508.143 3.43633Z" fill="#9C9C9C"></path></svg>