<svg width="143" height="130" viewBox="0 0 143 130" fill="none" xmlns="http://www.w3.org/2000/svg"><path d="M6.5852 71.754H21.9699C23.7831 71.754 25.4294 72.5104 26.6197 73.7229C27.8099 74.941 28.5552 76.6207 28.5552 78.4672V122.006C28.5552 123.853 27.8155 125.532 26.6197 126.75C26.5919 126.778 26.5641 126.806 26.5363 126.828C25.3461 127.996 23.7387 128.719 21.97 128.719H6.5853C4.77215 128.719 3.12582 127.963 1.93549 126.745C0.745148 125.527 0 123.847 0 122.001V78.4616C0 76.6151 0.739737 74.9354 1.93549 73.7174C3.13124 72.4994 4.77761 71.7484 6.5853 71.7484L6.5852 71.754ZM91.2983 17.5694C93.1338 17.5694 94.7967 18.3258 95.9981 19.5549C96.0259 19.5827 96.0537 19.6105 96.076 19.6439C97.2328 20.862 97.9448 22.525 97.9448 24.3493C97.9448 26.2181 97.1995 27.9145 95.9981 29.138C94.7968 30.3616 93.1337 31.1236 91.2984 31.1236C89.4685 31.1236 87.8054 30.3672 86.6042 29.138C85.3972 27.9089 84.6519 26.2125 84.6519 24.3493C84.6519 22.4805 85.3972 20.7841 86.5986 19.5549C87.8 18.3314 89.463 17.5694 91.2983 17.5694ZM94.0682 21.5183C93.3618 20.7952 92.3774 20.3503 91.2983 20.3503C90.2138 20.3503 89.2348 20.7952 88.5285 21.5183C87.8221 22.2414 87.3827 23.2425 87.3827 24.3437C87.3827 25.4505 87.8221 26.4517 88.5229 27.1691C89.2293 27.8921 90.2137 28.3371 91.2983 28.3371C92.3774 28.3371 93.3619 27.8921 94.0682 27.1691C94.7746 26.446 95.214 25.4449 95.214 24.3437C95.214 23.2702 94.8024 22.2969 94.1294 21.5794L94.0682 21.5183ZM117.384 17.5694C119.219 17.5694 120.882 18.3258 122.083 19.5549C123.285 20.7785 124.03 22.4749 124.03 24.3437C124.03 26.2125 123.285 27.9089 122.083 29.1325C120.882 30.356 119.219 31.118 117.384 31.118C115.548 31.118 113.885 30.3616 112.684 29.1325C111.483 27.9089 110.737 26.2125 110.737 24.3437C110.737 22.4749 111.483 20.7785 112.684 19.5493C113.885 18.3258 115.548 17.5638 117.384 17.5638V17.5694ZM120.154 21.5183C119.447 20.7952 118.463 20.3503 117.384 20.3503C116.299 20.3503 115.32 20.7952 114.614 21.5183C113.908 22.2414 113.468 23.2425 113.468 24.3437C113.468 25.4449 113.908 26.4461 114.614 27.1691C115.32 27.892 116.305 28.3371 117.384 28.3371C118.463 28.3371 119.447 27.8921 120.154 27.1691C120.86 26.446 121.299 25.4449 121.299 24.3437C121.299 23.2425 120.86 22.2413 120.154 21.5183ZM120.465 40.4128C120.471 39.6508 121.082 39.0334 121.833 39.039C122.584 39.0446 123.185 39.6675 123.179 40.4351C123.129 45.7023 120.999 50.4577 117.595 53.8952C114.186 57.3325 109.503 59.4571 104.336 59.4571C99.1685 59.4571 94.4854 57.3325 91.0819 53.8952C87.6784 50.4579 85.5478 45.7025 85.4978 40.441C85.4922 39.679 86.0929 39.0505 86.8438 39.0449C87.5947 39.0394 88.2064 39.6567 88.212 40.4187C88.2565 44.9183 90.0808 48.9841 92.9952 51.9318C95.9041 54.8685 99.9087 56.6817 104.336 56.6817C108.763 56.6817 112.768 54.8685 115.677 51.9318C118.597 48.9896 120.415 44.9183 120.46 40.4187L120.465 40.4128ZM71.0243 22.6087C70.6739 23.2873 69.8507 23.5487 69.1888 23.1927C68.5214 22.8368 68.2711 21.9969 68.6215 21.3184C71.9531 14.8721 76.9699 9.47145 83.0664 5.71771C88.9621 2.0914 95.8704 0 103.257 0C114.063 0 123.847 4.46626 130.928 11.6855C138.008 18.9049 142.391 28.8833 142.391 39.8944C142.391 48.9102 139.454 57.225 134.504 63.91C129.437 70.7511 122.263 75.8739 113.958 78.2766C113.235 78.4824 112.484 78.0541 112.278 77.3144C112.073 76.5747 112.495 75.8127 113.218 75.6013C120.938 73.3654 127.612 68.5988 132.329 62.2361C136.929 56.0235 139.659 48.2812 139.659 39.8947C139.659 29.644 135.583 20.3666 128.997 13.6472C122.406 6.9284 113.306 2.77361 103.256 2.77361C96.3818 2.77361 89.9576 4.71468 84.4746 8.08528C78.7959 11.5782 74.135 16.6006 71.0311 22.5955L71.0243 22.6087ZM33.7206 74.5069C33.2423 75.102 32.3857 75.191 31.8017 74.7015C31.2177 74.2177 31.1343 73.3389 31.6126 72.7437L43.2648 58.211C44.4606 56.7204 45.6675 55.38 47.0024 54.123C48.3261 52.8715 49.7388 51.7425 51.3352 50.6635L60.2676 44.6511L63.6047 33.3716C63.5213 30.2124 64.6837 28.0822 66.4246 27.0309C67.4592 26.408 68.6717 26.1799 69.9342 26.3635C71.1189 26.5359 72.3481 27.0643 73.4938 27.9597C76.5862 30.3736 79.2337 35.5796 78.7666 43.6162C78.5497 47.3871 77.3483 52.009 75.7632 56.1698C74.0668 60.6305 71.8921 64.6239 69.9677 66.5761C69.7007 66.8431 69.5338 67.1434 69.4893 67.4215C69.4615 67.5939 69.4782 67.7552 69.5505 67.8998C69.6339 68.0667 69.8064 68.2224 70.0678 68.3559C70.6351 68.6396 71.5305 68.7619 72.8098 68.6173C74.0389 68.5005 75.2792 68.317 76.5084 68.2057L96.8209 66.6095C99.9744 66.3592 102.411 66.8319 104.263 67.7608C106.515 68.8954 107.884 70.6807 108.623 72.6998C109.33 74.6408 109.441 76.7766 109.191 78.7122C108.929 80.7701 108.251 82.6556 107.455 83.8904C108.79 88.3176 109.502 92.1833 109.407 95.2367C109.318 98.09 108.545 100.304 106.943 101.705C108.634 109.703 104.986 113.129 103.084 114.915L103.061 114.932C103.006 115.004 102.945 115.071 102.878 115.143C102.65 115.399 102.21 115.888 102.333 116.639C102.433 117.245 102.488 117.852 102.505 118.452C102.583 121.3 101.693 123.697 100.297 125.471C98.8788 127.279 96.9266 128.441 94.9243 128.786C94.585 128.842 94.2402 128.875 93.8786 128.886L54.3834 129.993C52.954 130.032 51.647 129.899 50.3511 129.66C49.0663 129.42 47.8538 129.103 46.5578 128.753L34.2439 125.433C33.5153 125.238 33.0815 124.481 33.2761 123.736C33.4653 122.996 34.2105 122.551 34.9392 122.746L47.2531 126.067C48.5213 126.406 49.7059 126.723 50.8351 126.929C51.9586 127.134 53.0876 127.251 54.3113 127.218L93.8065 126.111C94.0178 126.105 94.2459 126.083 94.4795 126.044C95.8421 125.811 97.1881 124.999 98.1837 123.731C99.2016 122.435 99.8523 120.655 99.7967 118.525V118.519C99.7856 118.074 99.7411 117.596 99.6577 117.095C99.3128 115.015 100.342 113.864 100.87 113.274C100.904 113.235 100.904 113.252 100.915 113.235C100.976 113.141 101.048 113.052 101.137 112.968L101.248 112.863C102.811 111.394 105.865 108.53 104.118 101.522C103.94 100.927 104.174 100.265 104.719 99.9312C106.004 99.147 106.621 97.4895 106.688 95.1535C106.777 92.2724 106.037 88.4848 104.669 84.0797C104.513 83.6236 104.597 83.0897 104.93 82.7004C105.609 81.9161 106.249 80.2699 106.493 78.3566C106.688 76.8104 106.616 75.1362 106.071 73.6568C105.559 72.2607 104.613 71.0204 103.056 70.2362C101.621 69.5187 99.6578 69.1572 97.0215 69.3686L76.7091 70.9648L73.105 71.3653C71.2751 71.5711 69.879 71.3375 68.8835 70.8425C68.0548 70.4309 67.4764 69.8469 67.1314 69.174V69.1684C66.7755 68.4676 66.6809 67.6945 66.8144 66.9269C66.9646 66.0926 67.3873 65.275 68.0491 64.602C69.7122 62.9167 71.6533 59.2903 73.2217 55.1634C74.7123 51.2422 75.8414 46.9262 76.0417 43.4444C76.4477 36.4754 74.3285 32.0981 71.8368 30.1516C71.0693 29.5509 70.285 29.2005 69.5564 29.0948C68.9056 29.0003 68.2994 29.106 67.8043 29.4007C66.8588 29.9736 66.2414 31.3029 66.3248 33.3997C66.3415 33.5721 66.3248 33.7557 66.2748 33.9337L62.7319 45.9082C62.6429 46.2086 62.4538 46.4811 62.1757 46.6702L52.8317 52.9608C51.33 53.9675 50.0341 55.0076 48.8383 56.1367C47.648 57.2602 46.5189 58.5117 45.3676 59.9521L33.7154 74.4849L33.7206 74.5069ZM21.9627 74.5236H6.57796C5.5212 74.5236 4.55349 74.9685 3.8526 75.6804C3.15171 76.3924 2.71797 77.3768 2.71797 78.4559V121.995C2.71797 123.074 3.15179 124.058 3.8526 124.77C4.5534 125.482 5.51565 125.927 6.57796 125.927H21.9627C22.9972 125.927 23.9372 125.51 24.6268 124.837L24.688 124.77C25.3888 124.058 25.8226 123.074 25.8226 121.995V78.4559C25.8226 77.3769 25.3888 76.3924 24.688 75.6804C23.9872 74.9685 23.025 74.5236 21.9627 74.5236ZM14.2705 109.252C15.7722 109.252 17.135 109.875 18.1249 110.882C19.1094 111.889 19.7212 113.274 19.7212 114.809C19.7212 116.344 19.1094 117.729 18.1249 118.736C17.1405 119.742 15.7778 120.365 14.2705 120.365C12.7689 120.365 11.4061 119.742 10.4162 118.736C9.43173 117.729 8.81993 116.344 8.81993 114.809C8.81993 113.274 9.43174 111.889 10.4162 110.882C11.4006 109.875 12.7633 109.252 14.2705 109.252ZM16.195 112.845C15.7056 112.345 15.0214 112.033 14.2705 112.033C13.5197 112.033 12.8411 112.345 12.3461 112.845C11.8566 113.346 11.5507 114.041 11.5507 114.809C11.5507 115.576 11.8566 116.266 12.3461 116.772C12.8355 117.273 13.5197 117.584 14.2705 117.584C15.0214 117.584 15.7 117.273 16.195 116.772C16.6844 116.272 16.9903 115.576 16.9903 114.809C16.9903 114.041 16.6844 113.352 16.195 112.845Z" fill="#1A1A1A"></path></svg>