<svg width="127" height="130" viewBox="0 0 127 130" fill="none" xmlns="http://www.w3.org/2000/svg"><path d="M63.3823 130C63.6866 130 63.9857 129.92 64.249 129.767L116.495 99.6017C117.031 99.2927 117.361 98.7218 117.362 98.1034V59.4944C117.362 58.8751 117.031 58.3027 116.495 57.9932C115.959 57.6833 115.298 57.6833 114.761 57.9932C114.225 58.3027 113.895 58.875 113.895 59.4944V97.1041L63.3832 126.27L12.8658 97.1041V59.4944C12.8658 58.8751 12.5357 58.3027 11.9991 57.9932C11.4629 57.6833 10.8017 57.6833 10.2656 57.9932C9.72899 58.3027 9.39883 58.875 9.39883 59.4944V98.1034C9.39977 98.7218 9.72993 99.2928 10.2656 99.6017L62.5167 129.767C62.7801 129.92 63.0792 130 63.3835 130H63.3823ZM11.136 39.5047C11.4407 39.5057 11.7398 39.4253 12.0032 39.2724L29.515 29.1591H29.5145C29.9401 28.9437 30.2585 28.5627 30.3944 28.1061C30.5303 27.6489 30.4725 27.1561 30.2336 26.7432C29.9947 26.3302 29.5963 26.0344 29.1321 25.9244C28.6684 25.8143 28.1793 25.9004 27.7809 26.1623L10.2704 36.2757C9.83065 36.5339 9.52682 36.9722 9.43982 37.4745C9.35235 37.9768 9.49062 38.4922 9.81794 38.8835C10.1448 39.2743 10.6273 39.5019 11.1371 39.5048L11.136 39.5047ZM115.628 39.5047C116.138 39.5019 116.62 39.2743 116.947 38.8835C117.274 38.4922 117.413 37.9767 117.326 37.4745C117.238 36.9722 116.934 36.5339 116.495 36.2757L98.9841 26.1623C98.5857 25.9004 98.0966 25.8143 97.6329 25.9243C97.1687 26.0344 96.7703 26.3302 96.5314 26.7431C96.2925 27.1561 96.2347 27.6489 96.3706 28.106C96.5065 28.5627 96.8249 28.9436 97.2505 29.159L114.762 39.2724C115.025 39.4248 115.324 39.5052 115.628 39.5047Z" fill="black"></path><path d="M63.3823 130C63.8422 130 64.2829 129.818 64.6084 129.492C64.9334 129.167 65.1159 128.726 65.1159 128.266V67.9391C65.1159 67.3197 64.7857 66.7473 64.2491 66.4378C63.7129 66.1279 63.0517 66.1279 62.5156 66.4378C61.979 66.7473 61.6488 67.3196 61.6488 67.9391V128.266C61.6488 128.726 61.8313 129.167 62.1563 129.492C62.4817 129.818 62.9223 130 63.3823 130Z" fill="black"></path><path d="M53.9757 85.96C54.5946 85.9595 55.166 85.6293 55.4754 85.0932L64.881 68.8035C65.1095 68.4061 65.1712 67.9339 65.0526 67.4914C64.9341 67.0484 64.6449 66.6702 64.248 66.4402L11.9992 36.2748C11.6018 36.0462 11.1296 35.9846 10.6871 36.1031C10.2441 36.2216 9.866 36.5109 9.63602 36.9078L0.230482 53.1987C0.00192061 53.5961 -0.0596956 54.0683 0.0592928 54.5113C0.178279 54.9543 0.467981 55.332 0.864448 55.5619L53.112 85.7274C53.3744 85.8793 53.6723 85.96 53.9757 85.96ZM61.0189 68.571L53.3445 81.8628L4.0937 53.4275L11.7681 40.1356L61.0189 68.571Z" fill="black"></path><path d="M72.7877 85.9588C73.092 85.9592 73.3906 85.8793 73.6545 85.7278L125.901 55.5623C126.297 55.3324 126.587 54.9547 126.706 54.5117C126.825 54.0687 126.763 53.5965 126.535 53.1991L117.128 36.9082C116.898 36.5113 116.52 36.222 116.077 36.1035C115.634 35.985 115.162 36.0466 114.765 36.2752L62.5158 66.4407C62.1189 66.6706 61.8297 67.0488 61.7111 67.4918C61.5926 67.9343 61.6542 68.4065 61.8828 68.8039L71.2883 85.0936C71.5174 85.4915 71.895 85.7816 72.3385 85.8997C72.4853 85.9397 72.6362 85.9594 72.7881 85.9589L72.7877 85.9588ZM122.671 53.4275L73.4198 81.8665L65.7454 68.5746L114.996 40.1356L122.671 53.4275Z" fill="black"></path><path d="M28.5514 49.5615C29.0932 49.5606 29.6035 49.3061 29.9308 48.8739C30.2576 48.4417 30.3635 47.8816 30.2172 47.3601C28.2692 40.4979 28.4978 33.2002 30.8714 26.4748C33.2445 19.7481 37.6461 13.9234 43.4685 9.8034C49.2913 5.68354 56.2487 3.47076 63.381 3.47076C70.5133 3.47076 77.4711 5.68354 83.2935 9.8034C89.1162 13.9238 93.5178 19.7484 95.8906 26.4748C98.2643 33.201 98.4928 40.4986 96.5448 47.3601C96.4141 47.9418 96.5914 48.5499 97.0146 48.9704C97.4379 49.3904 98.0474 49.5634 98.6282 49.4289C99.209 49.2939 99.6803 48.8697 99.8749 48.3063C102.02 40.7546 101.77 32.7233 99.1586 25.3201C96.5475 17.9166 91.7044 11.5057 85.2961 6.97039C78.8882 2.43527 71.2313 0 63.3815 0C55.5307 0 47.8743 2.43527 41.4656 6.97039C35.0572 11.505 30.2141 17.9162 27.6031 25.3201C24.9919 32.7231 24.7417 40.755 26.8868 48.3063C26.9907 48.6675 27.209 48.9854 27.509 49.2116C27.8086 49.4379 28.174 49.5611 28.5498 49.5615L28.5514 49.5615Z" fill="black"></path><path d="M86.4467 56.4855C91.1446 50.6538 93.4589 43.2587 92.9237 35.7893C92.389 28.3195 89.0437 21.3296 83.5629 16.2272C78.0816 11.1249 70.8706 8.28807 63.3819 8.28807C55.8933 8.28807 48.6826 11.1249 43.201 16.2272C37.7196 21.33 34.3748 28.3199 33.8396 35.7893C33.3049 43.2586 35.6187 50.6535 40.3171 56.4855L43.0115 54.3184C39.2486 49.6812 37.207 43.8848 37.2324 37.9131C37.2324 30.9767 39.9879 24.3239 44.8927 19.4189C49.7979 14.5142 56.4503 11.7582 63.3869 11.7582C70.3238 11.7582 76.9761 14.5142 81.8811 19.4189C86.7858 24.3236 89.5418 30.9765 89.5418 37.9131C89.5672 43.8845 87.5251 49.6809 83.7627 54.3184L86.4467 56.4855Z" fill="black"></path><path d="M63.3823 54.558C63.8422 54.558 64.2829 54.3755 64.6084 54.0505C64.9334 53.7251 65.1159 53.2844 65.1159 52.8244V50.4885C66.6928 50.0986 68.0933 49.1928 69.0956 47.915C70.0973 46.6367 70.6429 45.0603 70.6452 43.4363C70.6452 42.817 70.3146 42.2446 69.7784 41.9351C69.2418 41.6252 68.5811 41.6252 68.0445 41.9351C67.5083 42.2446 67.1777 42.8169 67.1777 43.4363C67.1777 44.4437 66.7775 45.4103 66.065 46.1226C65.3525 46.8347 64.386 47.2349 63.3787 47.2344C62.3708 47.2344 61.4048 46.8337 60.6928 46.1212C59.9807 45.4082 59.5805 44.4418 59.5814 43.4344C59.5819 42.4271 59.9826 41.461 60.6956 40.749C61.4081 40.0369 62.375 39.6372 63.3824 39.6381C65.7681 39.6367 68.0011 38.4633 69.3561 36.4994C70.7106 34.5355 71.014 32.0311 70.1674 29.8004C69.3208 27.5698 67.4325 25.8973 65.1159 25.3264V22.9871C65.1159 22.3677 64.7857 21.7954 64.2491 21.4859C63.713 21.1759 63.0517 21.1759 62.5156 21.4859C61.979 21.7953 61.6489 22.3677 61.6489 22.9871V25.3264C60.0719 25.7158 58.6714 26.6216 57.6691 27.8999C56.6674 29.1777 56.1218 30.7542 56.1195 32.3781C56.1195 32.9975 56.4501 33.5698 56.9863 33.8798C57.5229 34.1892 58.1837 34.1892 58.7202 33.8798C59.2564 33.5699 59.587 32.9975 59.587 32.3781C59.587 31.3707 59.9872 30.4042 60.6997 29.6921C61.4122 28.9796 62.3787 28.5794 63.386 28.5799C64.3939 28.5799 65.3599 28.9806 66.072 29.6931C66.784 30.406 67.1842 31.3725 67.1833 32.3799C67.1828 33.3872 66.7821 34.3538 66.0691 35.0653C65.3566 35.7773 64.3897 36.1771 63.3824 36.1762C60.9966 36.1776 58.7636 37.351 57.4086 39.3149C56.0542 41.2788 55.7508 43.7832 56.5973 46.0139C57.4439 48.2445 59.3322 49.9174 61.6488 50.4884V52.8277V52.8272C61.6493 53.2867 61.8323 53.7269 62.1572 54.0514C62.4827 54.3759 62.9228 54.558 63.3823 54.558Z" fill="black"></path></svg>