<svg width="104" height="130" viewBox="0 0 104 130" fill="none" xmlns="http://www.w3.org/2000/svg"><path d="M71.2279 28.8174H32.8043C31.9077 28.8174 31.2033 29.5218 31.2033 30.4184V68.842C31.2033 69.7386 31.9077 70.443 32.8043 70.443H71.2279C72.1245 70.443 72.8289 69.7386 72.8289 68.842V30.4184C72.8289 29.5538 72.1245 28.8174 71.2279 28.8174ZM47.2131 32.0194H56.819V47.0366L52.7205 44.9873C52.2722 44.7632 51.7279 44.7632 51.2796 44.9873L47.1811 47.0366V32.0194H47.2131ZM69.6269 67.241H34.4052V32.0194H44.0112V49.6302C44.0112 50.1745 44.2993 50.6868 44.7796 51.007C45.2599 51.2952 45.8363 51.3272 46.3486 51.0711L52.0161 48.2213L57.7156 51.0711C57.9397 51.1992 58.1959 51.2312 58.42 51.2312C58.7082 51.2312 58.9964 51.1671 59.2525 51.007C59.7328 50.7189 60.021 50.2065 60.021 49.6302V32.0194H69.6269V67.241Z" fill="#1A1A1A"></path><path d="M53.6171 40.0246V36.8227C53.6171 35.9261 52.9126 35.2217 52.0161 35.2217C51.1195 35.2217 50.4151 35.9261 50.4151 36.8227V40.0246C50.4151 40.9212 51.1195 41.6256 52.0161 41.6256C52.9126 41.6256 53.6171 40.9212 53.6171 40.0246Z" fill="#1A1A1A"></path><path d="M88.8387 49.6303C88.8387 29.3298 72.3166 12.8076 52.0161 12.8076C31.7156 12.8076 15.1934 29.3298 15.1934 49.6303C15.1934 69.9308 31.7156 86.4529 52.0161 86.4529C72.3166 86.4529 88.8387 69.9308 88.8387 49.6303ZM52.0161 83.251C33.4767 83.251 18.3954 68.1697 18.3954 49.6303C18.3954 31.0909 33.4767 16.0096 52.0161 16.0096C70.5555 16.0096 85.6368 31.0909 85.6368 49.6303C85.6368 68.1697 70.5555 83.251 52.0161 83.251Z" fill="#1A1A1A"></path><path d="M77.5038 87.6059C77.856 87.4138 78.2402 87.3177 78.7205 87.4138C81.7944 87.9261 84.9324 86.9335 87.1417 84.7562C89.3511 82.5468 90.3437 79.4089 89.7993 76.335C89.6392 75.3744 90.1836 74.5419 91.1442 74.3177C94.186 73.6453 96.7156 71.5 97.9003 68.6182C99.0851 65.7365 98.7969 62.4704 97.1319 59.8128C96.6195 58.9803 96.8117 58.0197 97.6122 57.4434C100.142 55.6502 101.679 52.7044 101.679 49.5985C101.679 46.4926 100.174 43.5468 97.6122 41.7537C96.8117 41.1773 96.6195 40.2167 97.1319 39.3842C98.7969 36.7586 99.0851 33.4606 97.9003 30.5788C96.7156 27.697 94.186 25.5837 91.1442 24.9113C90.1836 24.6872 89.6392 23.8867 89.7993 22.8941C90.3117 19.8202 89.319 16.6823 87.1417 14.4729C84.9324 12.2635 81.7944 11.2709 78.7205 11.8153C77.7599 11.9754 76.9274 11.431 76.7033 10.4704C76.0309 7.42857 73.8855 4.89901 71.0038 3.71429C68.122 2.52956 64.856 2.81773 62.1984 4.48276C61.3658 4.99507 60.4053 4.80296 59.8289 4.00246C58.0678 1.53695 55.122 0 52.0161 0C48.9102 0 45.9644 1.50493 44.1713 4.0665C43.5949 4.86699 42.6343 5.05911 41.8018 4.5468C39.1762 2.88177 35.8782 2.5936 32.9964 3.77833C30.1146 4.96305 28.0013 7.49261 27.3289 10.5345C27.1048 11.4951 26.3043 12.0394 25.3117 11.8793C22.2378 11.335 19.0998 12.3596 16.8905 14.5369C14.6811 16.7463 13.6885 19.8842 14.2328 22.9581C14.3929 23.9187 13.8486 24.7512 12.888 24.9754C9.84613 25.6478 7.31658 27.7931 6.13185 30.6749C4.94712 33.5567 5.2353 36.8227 6.90032 39.4803C7.41264 40.3128 7.22052 41.2734 6.42003 41.8498C3.89047 43.6108 2.38554 46.5246 2.38554 49.6305C2.38554 52.7365 3.89047 55.6823 6.45204 57.4754C7.25254 58.0517 7.44466 59.0123 6.93234 59.8448C5.26732 62.4704 4.97914 65.7685 6.16387 68.6502C7.3486 71.532 9.87815 73.6453 12.92 74.3177C13.8806 74.5419 14.425 75.3744 14.2649 76.335C13.7525 79.4089 14.7451 82.5468 16.9225 84.7562C19.0998 86.9655 22.2698 87.9261 25.3437 87.4138C25.792 87.3177 26.2082 87.4138 26.5284 87.6059L0.46436 113.67C-0.0159359 114.15 -0.144015 114.887 0.176182 115.527C0.496379 116.167 1.13677 116.488 1.84121 116.392L15.5777 114.406L13.5924 128.175C13.4964 128.847 13.8486 129.52 14.457 129.84C14.6811 129.968 14.9373 130 15.1614 130C15.5777 130 15.9939 129.84 16.2821 129.52L47.5974 98.2044C48.9422 98.9089 50.4471 99.2611 51.9841 99.2611C53.521 99.2611 55.0259 98.8768 56.3708 98.2044L87.686 129.52C88.0062 129.84 88.3905 130 88.8067 130C89.0629 130 89.287 129.936 89.5112 129.84C90.1195 129.52 90.4718 128.879 90.3757 128.175L88.3905 114.438L102.127 116.424C102.831 116.52 103.472 116.167 103.792 115.559C104.112 114.951 103.984 114.214 103.504 113.702L77.5038 87.6059ZM17.4348 123.852L19.0358 112.773C19.0998 112.261 18.9397 111.781 18.5875 111.429C18.2353 111.076 17.755 110.916 17.2427 110.98L6.16387 112.581L28.0653 90.6798C29.058 92.8251 30.819 94.5862 33.0604 95.5148C35.9422 96.6995 39.2082 96.4113 41.8658 94.7463C42.6984 94.234 43.6589 94.4261 44.2353 95.2266C44.4915 95.6108 44.8437 95.899 45.1319 96.2192L17.4348 123.852ZM57.2353 93.3695C56.0506 95.0665 54.0974 96.0591 52.0161 96.0591C49.9348 96.0591 47.9816 95.0345 46.7969 93.3374C45.8363 91.9606 44.3314 91.2241 42.7944 91.2241C41.8979 91.2241 40.9693 91.4803 40.1368 92.0246C38.3757 93.1133 36.1984 93.3374 34.2772 92.5369C32.356 91.7365 30.9471 90.0714 30.4988 88.0222C29.9225 85.3966 27.457 83.7956 24.8314 84.2438C22.7821 84.5961 20.7008 83.9236 19.2279 82.4828C17.755 81.0098 17.0826 78.9286 17.4668 76.8793C17.9151 74.2217 16.2821 71.7882 13.6885 71.2118C11.6713 70.7635 9.97421 69.3547 9.20574 67.4335C8.40525 65.5123 8.59737 63.335 9.71806 61.5739C11.1589 59.3005 10.5826 56.4187 8.37323 54.8818C6.61214 53.665 5.58751 51.7118 5.58751 49.6305C5.58751 47.5493 6.61214 45.5961 8.27717 44.4113C10.4865 42.8744 11.0309 39.9926 9.622 37.7192C8.50131 35.9581 8.34121 33.7808 9.10968 31.8596C9.91017 29.9384 11.5752 28.5296 13.6245 28.0813C16.2501 27.5049 17.8831 25.0394 17.4028 22.4138C17.0506 20.3645 17.723 18.2833 19.1639 16.8103C20.6048 15.3374 22.7181 14.665 24.7673 15.0172C27.3929 15.4655 29.8585 13.8325 30.4348 11.2389C30.8831 9.22167 32.292 7.52463 34.2131 6.75616C36.1343 5.95567 38.3117 6.14778 40.0727 7.26847C42.3461 8.70936 45.2279 8.13301 46.7649 5.92365C47.9816 4.2266 49.9348 3.20197 52.0161 3.20197C54.0974 3.20197 56.0506 4.2266 57.2353 5.92365C58.7722 8.10099 61.654 8.67734 63.9274 7.26847C65.6885 6.14778 67.8658 5.98768 69.787 6.75616C71.7082 7.55665 73.1171 9.22167 73.5654 11.2709C74.1737 13.8966 76.6072 15.5296 79.2328 15.0493C81.2821 14.697 83.3634 15.3695 84.8363 16.8424C86.3092 18.3153 86.9816 20.3966 86.5974 22.4458C86.1491 25.1034 87.7821 27.5369 90.3757 28.1133C92.3929 28.5616 94.09 29.9704 94.8905 31.8916C95.691 33.8128 95.4988 35.9901 94.3782 37.7512C92.9373 40.0246 93.5136 42.9064 95.723 44.4434C97.42 45.6281 98.4447 47.5813 98.4447 49.6626C98.4447 51.7438 97.42 53.697 95.755 54.8818C93.5456 56.4187 93.0013 59.3005 94.4102 61.5739C95.5309 63.335 95.691 65.5123 94.9225 67.4335C94.122 69.3547 92.457 70.7635 90.4077 71.2118C87.7821 71.7882 86.1491 74.2537 86.6294 76.8793C86.9816 78.9286 86.3092 81.0098 84.8683 82.4828C83.4274 83.9557 81.3141 84.6281 79.2649 84.2438C76.6392 83.7956 74.1737 85.4286 73.5974 88.0222C73.1491 90.0394 71.7402 91.7365 69.819 92.5049C67.8979 93.3054 65.7205 93.1133 63.9594 91.9926C61.654 90.5837 58.7722 91.1601 57.2353 93.3695ZM86.8215 110.948C86.3092 110.884 85.8289 111.044 85.4767 111.397C85.1245 111.749 84.9644 112.261 85.0284 112.741L86.6294 123.82L58.9644 96.1552C59.2846 95.835 59.6048 95.5148 59.8609 95.1626C60.4373 94.3621 61.3979 94.17 62.2304 94.6823C64.856 96.3473 68.154 96.6355 71.0358 95.4507C73.2772 94.5222 75.0383 92.7611 76.0309 90.6158L97.9324 112.517L86.8215 110.948Z" fill="#1A1A1A"></path><path d="M73.5333 99.4856C72.8929 100.126 72.8929 101.119 73.5333 101.759L78.6565 106.882C78.9767 107.202 79.3929 107.362 79.7772 107.362C80.1614 107.362 80.6097 107.202 80.8979 106.882C81.5383 106.242 81.5383 105.249 80.8979 104.609L75.7747 99.4856C75.1663 98.8772 74.1737 98.8772 73.5333 99.4856Z" fill="#1A1A1A"></path><path d="M28.2255 99.485L23.1023 104.608C22.4619 105.249 22.4619 106.241 23.1023 106.882C23.4225 107.202 23.8388 107.362 24.223 107.362C24.6072 107.362 25.0555 107.202 25.3437 106.882L30.4668 101.758C31.1072 101.118 31.1072 100.125 30.4668 99.485C29.8264 98.8446 28.8658 98.8766 28.2255 99.485Z" fill="#1A1A1A"></path><path d="M55.2181 60.8377H40.8092V59.2367C40.8092 58.3402 40.1048 57.6357 39.2082 57.6357C38.3117 57.6357 37.6072 58.3402 37.6072 59.2367V62.4387C37.6072 63.3352 38.3117 64.0397 39.2082 64.0397H55.2181C56.1146 64.0397 56.819 63.3352 56.819 62.4387C56.819 61.5421 56.1146 60.8377 55.2181 60.8377Z" fill="#1A1A1A"></path><path d="M61.622 64.0389H64.824C65.7205 64.0389 66.4249 63.3345 66.4249 62.4379C66.4249 61.5413 65.7205 60.8369 64.824 60.8369H61.622C60.7254 60.8369 60.021 61.5413 60.021 62.4379C60.021 63.3345 60.7254 64.0389 61.622 64.0389Z" fill="#1A1A1A"></path></svg>