<svg width="126" height="130" viewBox="0 0 126 130" fill="none" xmlns="http://www.w3.org/2000/svg"><path fill-rule="evenodd" clip-rule="evenodd" d="M77.8198 20.1259C84.9853 20.1259 91.474 23.0291 96.1728 27.7282C100.871 32.4273 103.775 38.9164 103.775 46.0812C103.775 53.246 100.872 59.7354 96.1728 64.4342C91.4737 69.1272 84.9847 72.0365 77.8198 72.0365C70.655 72.0365 64.1657 69.1272 59.4669 64.4342C54.7739 59.7412 51.8646 53.246 51.8646 46.0812C51.8646 38.9164 54.7677 32.427 59.4669 27.7282C64.1659 23.0352 70.655 20.1259 77.8198 20.1259ZM83.3062 34.3955C83.3062 32.8825 82.6911 31.5109 81.7009 30.5206C80.7107 29.5303 79.339 28.9153 77.826 28.9153C76.313 28.9153 74.9414 29.5304 73.9511 30.5206C72.9608 31.5108 72.3458 32.8825 72.3458 34.3955C72.3458 35.9085 72.9609 37.2801 73.9511 38.2704C74.9413 39.2607 76.313 39.8757 77.826 39.8757C79.339 39.8757 80.7106 39.2606 81.7009 38.2704C82.6973 37.2801 83.3062 35.9085 83.3062 34.3955ZM83.7429 28.4847C82.2298 26.9716 80.1385 26.0367 77.8321 26.0367C75.5256 26.0367 73.4343 26.9716 71.9212 28.4847C70.4082 29.9977 69.4733 32.089 69.4733 34.3955C69.4733 36.702 70.4082 38.7933 71.9212 40.3063C72.0812 40.4662 72.2472 40.62 72.4194 40.7676C69.9468 41.6041 67.7326 43.0004 65.9243 44.8086C62.8798 47.8532 60.9976 52.0603 60.9976 56.704L61.0099 57.0915C61.0161 57.2514 61.0161 57.3867 61.0222 57.479C61.053 58.254 61.6926 58.8567 62.4553 58.8506V58.8567H93.191C93.9845 58.8567 94.6303 58.2109 94.6303 57.4174V57.3621L94.6365 57.0976V57.0914L94.6488 56.7101C94.6488 52.0663 92.7666 47.8593 89.722 44.8147C87.92 43.0126 85.7057 41.6164 83.2393 40.7799C83.4176 40.6323 83.5837 40.4785 83.7436 40.3124C85.2567 38.7994 86.1916 36.7081 86.1916 34.4016C86.1916 32.089 85.2567 29.9978 83.7436 28.4846L83.7429 28.4847ZM63.9006 55.9846H91.7456C91.5611 52.4233 90.0419 49.2189 87.6801 46.8509C85.1583 44.3291 81.6709 42.7669 77.8205 42.7669C73.9701 42.7669 70.4827 44.3291 67.9609 46.8509C65.5991 49.2128 64.0799 52.4235 63.9014 55.9846H63.9006ZM50.5351 107.552C49.7478 107.435 49.2066 106.703 49.3234 105.915C49.4403 105.128 50.1722 104.587 50.9595 104.704L75.784 108.474C77.9429 108.8 79.5174 108.062 80.4155 106.887C80.8214 106.352 81.1044 105.725 81.2458 105.073C81.3873 104.415 81.3873 103.726 81.2397 103.068C80.9137 101.635 79.8372 100.343 77.9122 99.8078C70.5991 97.7842 64.4483 95.2193 58.8074 92.8575C47.7177 88.226 38.6148 84.4248 26.7806 87.5618L26.7252 100.632V115.966C33.5279 115.621 40.2941 118.377 47.3665 121.261C58.4193 125.764 70.2661 130.586 83.398 123.414L121.833 97.12C122.651 96.5603 123.027 95.7053 122.99 94.8258C122.965 94.2907 122.787 93.731 122.461 93.2144L122.418 93.1467C122.079 92.6362 121.594 92.1749 120.96 91.8182C119.201 90.8279 116.378 90.6372 112.497 92.2549L84.2279 104.027C84.234 104.581 84.1786 105.134 84.0618 105.67C83.8342 106.734 83.3791 107.755 82.7025 108.634C81.2079 110.584 78.6984 111.833 75.3586 111.322L50.5351 107.552ZM78.6741 97.0401C81.1959 97.7413 82.8196 99.3036 83.6253 101.161L111.396 89.5916C116.211 87.5865 119.927 87.9371 122.368 89.3148C123.426 89.9114 124.25 90.7049 124.835 91.5844C124.853 91.6152 124.878 91.6398 124.896 91.6705C125.493 92.6116 125.819 93.6634 125.862 94.7089C125.936 96.5419 125.148 98.3316 123.457 99.4942L84.9771 125.813C84.9279 125.85 84.8787 125.881 84.8233 125.912C70.4671 133.784 57.9585 128.692 46.2778 123.931C39.4567 121.151 32.9306 118.494 26.7124 118.844V122.498C26.7124 123.291 26.0666 123.937 25.2731 123.937L1.43929 123.943C0.645851 123.943 0 123.298 0 122.504V81.5166C0 80.7232 0.645825 80.0773 1.43929 80.0773H25.2796C26.0731 80.0773 26.7189 80.7231 26.7189 81.5166V84.6104C39.1434 81.535 48.5242 85.4469 59.9083 90.2013C65.4809 92.5325 71.5577 95.0726 78.6746 97.0409L78.6741 97.0401ZM23.8343 117.952C23.7974 117.823 23.7728 117.681 23.7728 117.54L23.8343 103.387V82.9594H2.87803V121.056H23.8343V117.952ZM16.0352 110.583C14.9588 110.583 13.9809 111.02 13.2673 111.733L13.2612 111.727C12.5538 112.435 12.1171 113.419 12.1171 114.495C12.1171 115.578 12.5538 116.556 13.2612 117.263H13.2673C13.9746 117.97 14.9526 118.413 16.0352 118.413C17.1177 118.413 18.0956 117.976 18.803 117.263C19.5103 116.556 19.9532 115.571 19.9532 114.495C19.9532 113.419 19.5165 112.441 18.803 111.727V111.721C18.0957 111.02 17.1177 110.583 16.0352 110.583ZM16.7671 113.769L16.7609 113.775C16.5764 113.591 16.3119 113.474 16.029 113.474C15.7399 113.474 15.4816 113.585 15.2971 113.769V113.775C15.1126 113.96 14.9957 114.224 14.9957 114.507C14.9957 114.79 15.1126 115.055 15.2971 115.239L15.2909 115.245C15.4754 115.43 15.7399 115.547 16.0229 115.547C16.3058 115.547 16.5703 115.43 16.7548 115.245C16.9393 115.061 17.0562 114.796 17.0562 114.514C17.0685 114.212 16.9516 113.954 16.7671 113.769ZM77.8186 92.174C78.9257 92.174 80.0451 92.131 81.1707 92.051C82.2963 91.971 83.4156 91.848 84.5228 91.6881C85.1194 91.602 85.6176 91.1469 85.7345 90.5256L87.1676 82.7819C89.2404 82.3083 91.2455 81.6625 93.183 80.8629C95.1451 80.051 97.021 79.073 98.7986 77.9536L104.845 82.1115C105.355 82.4928 106.087 82.499 106.61 82.0808C108.129 80.8629 109.568 79.5528 110.922 78.1567C112.256 76.7851 113.505 75.3151 114.667 73.7712C115.067 73.2915 115.116 72.578 114.741 72.0428L110.657 66.1013C111.776 64.3238 112.748 62.4478 113.566 60.4857C114.366 58.5482 115.012 56.5431 115.485 54.4703L122.374 53.1972C122.977 53.0864 123.463 52.6005 123.543 51.9609C123.672 50.9645 123.764 49.9927 123.826 49.0332C123.887 48.0307 123.918 47.0465 123.918 46.0871C123.918 45.1276 123.887 44.1435 123.826 43.1409C123.764 42.206 123.672 41.2464 123.549 40.2747C123.494 39.6473 123.026 39.0999 122.374 38.983L115.485 37.7098C115.012 35.637 114.366 33.6319 113.566 31.6944C112.754 29.7324 111.783 27.8564 110.663 26.0788L114.747 20.1373C115.086 19.6453 115.098 18.9687 114.717 18.4582C113.542 16.8959 112.281 15.4136 110.934 14.0235C109.581 12.6272 108.135 11.311 106.616 10.0994C106.13 9.71191 105.435 9.66886 104.9 10.0379L98.811 14.2265C97.0334 13.1071 95.1574 12.1352 93.1954 11.3172C91.2579 10.5176 89.2466 9.87178 87.18 9.39822L85.7592 1.72834C85.6792 1.10098 85.1872 0.578171 84.5352 0.485901C83.4342 0.325976 82.3148 0.202976 81.1892 0.123014C80.0637 0.0430541 78.9381 0 77.8309 0C76.7176 0 75.5982 0.0430541 74.4726 0.123014C73.347 0.202973 72.2338 0.325989 71.1266 0.485901C70.53 0.57201 70.0318 1.02716 69.915 1.64838L68.4818 9.39213C66.409 9.86574 64.3978 10.5116 62.4665 11.3111C60.5044 12.123 58.6284 13.0949 56.8509 14.2204L50.8048 10.0625C50.2943 9.68118 49.5623 9.67502 49.0395 10.0933C47.5203 11.3111 46.081 12.6212 44.7218 14.0174C43.3871 15.3889 42.1384 16.8589 40.976 18.4028C40.5762 18.8887 40.527 19.5961 40.9022 20.1312L44.9863 26.0727C43.8668 27.8503 42.895 29.7262 42.0831 31.6883C41.2835 33.6196 40.6377 35.6309 40.1641 37.7037L33.2692 38.9769C32.6726 39.0876 32.1805 39.5735 32.1067 40.2132C31.9776 41.2096 31.8853 42.1814 31.8238 43.1408C31.7623 44.1434 31.7315 45.1275 31.7315 46.087C31.7315 47.0464 31.7623 48.0305 31.8238 49.0331C31.8853 49.968 31.9776 50.9276 32.0944 51.8994C32.1498 52.5329 32.6172 53.0742 33.2692 53.191L40.1641 54.4642C40.6377 56.537 41.2835 58.5421 42.0831 60.4796C42.895 62.4417 43.873 64.3176 44.9924 66.0952L40.9084 72.0367C40.5701 72.5288 40.5578 73.2053 40.9391 73.7159C42.1139 75.2781 43.3809 76.7604 44.7218 78.1505C46.0749 79.5468 47.5203 80.863 49.0395 82.0746C49.5193 82.4621 50.2205 82.5052 50.7555 82.1361L56.8447 77.9475C58.6222 79.0669 60.4982 80.0388 62.4603 80.8568C64.3978 81.6564 66.4029 82.3022 68.4757 82.7758L69.8964 90.4457C69.9764 91.073 70.4685 91.5958 71.1204 91.6881C72.2276 91.848 73.347 91.971 74.4726 92.051C75.592 92.131 76.7114 92.174 77.8186 92.174ZM74.6694 89.1786C75.6904 89.2525 76.7422 89.2894 77.8186 89.2894C78.8949 89.2894 79.9467 89.2525 80.9677 89.1786C81.6812 89.1294 82.3885 89.0556 83.0959 88.9695L84.4983 81.4104C84.5598 80.8015 85.0149 80.2725 85.6485 80.1495C87.8812 79.7005 90.0339 79.0424 92.082 78.1936C94.1794 77.3264 96.1661 76.2561 98.0297 75.0198C98.5033 74.7061 99.143 74.6938 99.6412 75.0383L105.632 79.1592C106.757 78.212 107.84 77.2033 108.861 76.1515C109.894 75.0874 110.872 73.9741 111.783 72.8117L107.785 66.9931C107.428 66.5195 107.385 65.8552 107.729 65.3325C108.972 63.4688 110.036 61.4759 110.903 59.3848C111.752 57.3428 112.41 55.19 112.859 52.9574H112.865C112.976 52.3976 113.419 51.9363 114.015 51.8256L120.812 50.5647C120.867 50.0112 120.916 49.4392 120.953 48.8549C121.009 47.9753 121.039 47.0466 121.039 46.087C121.039 45.1275 121.009 44.2049 120.953 43.3192C120.916 42.7349 120.867 42.169 120.812 41.6094L114.126 40.3731C113.517 40.3116 112.988 39.8564 112.865 39.2229C112.416 36.9901 111.758 34.8374 110.909 32.7893C110.042 30.698 108.972 28.7053 107.735 26.8416C107.422 26.368 107.409 25.7283 107.754 25.2302L111.789 19.3562C110.872 18.1999 109.9 17.0866 108.867 16.0226C107.84 14.9647 106.764 13.9621 105.632 13.0087L99.6965 17.0928C99.2229 17.4495 98.5586 17.4926 98.0359 17.1481C96.1722 15.9057 94.1793 14.8416 92.0882 13.9743C90.04 13.1255 87.8934 12.4675 85.6546 12.0184V12.0123C85.0949 11.9016 84.6336 11.4587 84.5229 10.8621L83.1021 3.19223C82.4009 3.10612 81.6936 3.03846 80.9801 2.9831C79.9591 2.90929 78.9073 2.87239 77.8248 2.87239C76.7422 2.87239 75.6904 2.90929 74.6695 2.9831C73.956 3.03231 73.2487 3.10612 72.5475 3.19223L71.1512 10.7514C71.0897 11.3603 70.6345 11.8892 70.001 12.0123C67.7683 12.4613 65.6156 13.1194 63.5675 13.9681C61.4762 14.8354 59.4834 15.8995 57.6198 17.142C57.1462 17.4556 56.5065 17.4679 56.0083 17.1235L50.0176 13.0026C48.892 13.9498 47.8095 14.9585 46.7885 16.0164C45.7552 17.0805 44.7835 18.1938 43.8669 19.3563L47.8711 25.1748C48.2278 25.6484 48.2709 26.3127 47.9264 26.8355C46.684 28.6991 45.6199 30.6858 44.7526 32.7832C43.9038 34.8251 43.2457 36.978 42.7967 39.2167H42.7906C42.6799 39.7765 42.237 40.2378 41.6404 40.3485L34.8439 41.6094C34.7885 42.1629 34.7393 42.7349 34.7024 43.313C34.6471 44.1926 34.6163 45.1213 34.6163 46.0809C34.6163 47.0405 34.6471 47.963 34.7024 48.8487C34.7393 49.433 34.7885 49.9989 34.8439 50.5524L41.5296 51.7887C42.1386 51.8502 42.6675 52.3054 42.7905 52.9389C43.2395 55.1716 43.8977 57.3243 44.7464 59.3725C45.6137 61.4698 46.6839 63.4565 47.9202 65.3201C48.2339 65.7937 48.2462 66.4334 47.9018 66.9316L43.8608 72.8055C44.7772 73.9619 45.7491 75.0813 46.7824 76.1453C47.8034 77.2032 48.8859 78.2058 50.0115 79.1592L55.9468 75.0751C56.4204 74.7184 57.0847 74.6753 57.6075 75.0198C59.4711 76.2622 61.464 77.3263 63.5551 78.1936C65.5971 79.0424 67.7499 79.7005 69.9887 80.1495V80.1556C70.5484 80.2663 71.0097 80.7092 71.1204 81.3058L72.5412 88.9695C73.2424 89.0618 73.9559 89.1294 74.6694 89.1786ZM94.1364 29.77C89.9601 25.5937 84.1907 23.0104 77.8186 23.0104C71.4469 23.0104 65.6771 25.5937 61.5073 29.77C57.331 33.9463 54.7476 39.7157 54.7476 46.0878C54.7476 52.4599 57.331 58.2292 61.5073 62.4057C65.6836 66.582 71.4529 69.1653 77.8186 69.1653C84.1906 69.1653 89.96 66.582 94.1364 62.4057C98.3127 58.2294 100.896 52.46 100.896 46.0878C100.89 39.7096 98.3066 33.9403 94.1364 29.77Z" fill="black"></path></svg>